<svg id="_1911755771744" xmlns="http://www.w3.org/2000/svg" width="68.212" height="94.824" viewBox="0 0 68.212 94.824">
  <path id="Контур_235" data-name="Контур 235" d="M6617.548,10988.664c-.039-.057-.047-.08-.063-.088-.085-.052-.174-.1-.261-.147a7.045,7.045,0,0,1-3.954-6.719,6.9,6.9,0,0,1,3.017-5.545,1.472,1.472,0,0,1,2.055.331,1.5,1.5,0,0,1-.226,2.024c-.134.123-.284.229-.419.35a4.083,4.083,0,0,0-1.076,4.848,4.479,4.479,0,0,0,4.508,2.557,4.7,4.7,0,0,0,3.793-4.2c.085-1.292.465-1.654,1.773-1.833a4.481,4.481,0,0,0,3.687-6.353,1.51,1.51,0,0,1,.476-1.993,4.6,4.6,0,0,0-.539-7.418,1.071,1.071,0,0,0-.819-.1,4.36,4.36,0,0,0-2.882,4.031,1.49,1.49,0,0,1-1.542,1.582,1.505,1.505,0,0,1-1.475-1.6,7.489,7.489,0,0,1,6.257-7.222,1.649,1.649,0,0,0,.912-.479,5.379,5.379,0,0,0-1.02-8.145,1.556,1.556,0,0,0-.552-.223c-3.168-.6-6.462,1.653-6.341,4.533a1.349,1.349,0,0,1-1.538,1.29,1.422,1.422,0,0,1-1.386-1.471,7.337,7.337,0,0,1,.217-1.734,7.955,7.955,0,0,1,7.023-5.634.807.807,0,0,0,.8-.582,3.609,3.609,0,0,0-.743-3.991,4.459,4.459,0,0,0-3.615-1.382,1.336,1.336,0,0,1-1.543-1.072,5.734,5.734,0,0,0-6-4.349,1.49,1.49,0,0,1-1.355-.655,4.722,4.722,0,0,0-5.845-1.694,4.38,4.38,0,0,0-3,4.374q.016,6.977.039,13.955.021,7.157.04,14.317.015,8.8.022,17.6a3.537,3.537,0,0,0,.07.781,6.439,6.439,0,0,0,11.5,2.052Zm13.348-39.082c5.553,3.948,5.154,9.682,2.144,13.138.306.363.633.716.918,1.1a7.506,7.506,0,0,1-.086,9.227,1.132,1.132,0,0,0-.242,1.089,7.435,7.435,0,0,1-5.169,8.766,1.007,1.007,0,0,0-.8.808,7.96,7.96,0,0,1-6.545,5.662,1.033,1.033,0,0,0-.685.439c-3.519,6.343-12.794,6.018-16.391-.069a7.841,7.841,0,0,1-1.074-4.048q-.015-11.436-.022-22.872-.007-7.251-.022-14.5c-.006-2.771.063-5.545-.057-8.31a7.516,7.516,0,0,1,6.165-7.6,7.694,7.694,0,0,1,7.481,2.252,1.175,1.175,0,0,0,.677.293,8.643,8.643,0,0,1,7.23,4.983.8.8,0,0,0,.706.512A6.972,6.972,0,0,1,6630.9,10949.582Z" transform="translate(-6567.288 -10915.914)" fill="#6b452c"/>
  <path id="Контур_236" data-name="Контур 236" d="M6866.415,10370.818c.487.383.906.7,1.308,1.031a1.486,1.486,0,0,1-.039,2.439q-2.178,1.644-4.4,3.229a1.48,1.48,0,0,1-2.146-.3,1.51,1.51,0,0,1,.4-2.133c.9-.682,1.819-1.346,2.791-2.061-.416-.328-.81-.633-1.2-.947a1.5,1.5,0,0,1,0-2.521q2.068-1.635,4.164-3.236a1.5,1.5,0,1,1,1.849,2.359C6868.277,10369.383,6867.38,10370.066,6866.415,10370.818Z" transform="translate(-6817.872 -10365.953)" fill="#ff5638"/>
  <path id="Контур_237" data-name="Контур 237" d="M6864.335,13252.422c-.983-.73-1.895-1.395-2.793-2.074a1.5,1.5,0,1,1,1.752-2.428c1.474,1.066,2.941,2.139,4.394,3.232a1.462,1.462,0,0,1,.072,2.391c-.4.361-.832.7-1.312,1.1.924.721,1.806,1.412,2.691,2.1a1.5,1.5,0,1,1-1.7,2.461c-1.509-1.119-2.989-2.277-4.449-3.459a1.462,1.462,0,0,1,.038-2.283c.4-.34.818-.65,1.31-1.039Z" transform="translate(-6817.874 -13164.665)" fill="#ff5638"/>
  <path id="Контур_238" data-name="Контур 238" d="M5939.784,13252.563c.458.363.858.668,1.244.988a1.5,1.5,0,0,1-.012,2.445q-2.073,1.635-4.169,3.238a1.5,1.5,0,1,1-1.823-2.381c.869-.686,1.744-1.363,2.673-2.09-.442-.35-.839-.652-1.225-.969a1.5,1.5,0,0,1,.031-2.555q2.115-1.582,4.252-3.125a1.5,1.5,0,0,1,2.2.232,1.53,1.53,0,0,1-.419,2.178C5941.65,13251.193,5940.751,13251.848,5939.784,13252.563Z" transform="translate(-5918.003 -13164.812)" fill="#ff5638"/>
  <path id="Контур_239" data-name="Контур 239" d="M6401.008,13252.643c-.94-.693-1.817-1.334-2.688-1.984a1.514,1.514,0,1,1,1.78-2.414q2.083,1.515,4.149,3.051a1.5,1.5,0,0,1,.105,2.549c-.377.332-.787.625-1.253.992.254.205.479.391.707.57.7.549,1.417,1.072,2.1,1.643a1.487,1.487,0,0,1,.21,2.113,1.5,1.5,0,0,1-2.07.23c-1.446-1.1-2.885-2.213-4.3-3.348a1.487,1.487,0,0,1,0-2.4c.387-.322.79-.625,1.263-1Z" transform="translate(-6367.876 -13164.89)" fill="#ff5638"/>
  <path id="Контур_240" data-name="Контур 240" d="M5937.637,10371c-.923-.718-1.768-1.372-2.609-2.029a1.516,1.516,0,1,1,1.83-2.383q2.008,1.559,4.012,3.127a1.5,1.5,0,0,1-.01,2.585l-1.139.909c.949.7,1.856,1.356,2.755,2.03a1.512,1.512,0,0,1,.456,2.127,1.421,1.421,0,0,1-2.026.417q-2.354-1.655-4.638-3.409a1.441,1.441,0,0,1,0-2.273C5936.686,10371.726,5937.139,10371.393,5937.637,10371Z" transform="translate(-5917.941 -10366.138)" fill="#ff5638"/>
  <path id="Контур_241" data-name="Контур 241" d="M6401.247,10373.159c-.456-.376-.846-.689-1.229-1.013a1.472,1.472,0,0,1,.021-2.434q2.065-1.639,4.162-3.237a1.506,1.506,0,0,1,2.206.2,1.529,1.529,0,0,1-.383,2.188c-.866.688-1.745,1.359-2.679,2.085.455.359.866.673,1.267,1a1.486,1.486,0,0,1-.016,2.474q-2.174,1.644-4.392,3.229a1.476,1.476,0,0,1-2.107-.269,1.518,1.518,0,0,1,.343-2.146C6399.337,10374.551,6400.254,10373.892,6401.247,10373.159Z" transform="translate(-6368.131 -10366.085)" fill="#ff5638"/>
  <path id="Контур_242" data-name="Контур 242" d="M6867.512,11298.244a6.8,6.8,0,0,1-5.537-2.658,4.819,4.819,0,0,1-.709-1.518,1.42,1.42,0,0,1,.9-1.709,1.515,1.515,0,0,1,1.866.719,3.815,3.815,0,0,0,4.3,2.1,4.294,4.294,0,0,0,2.209-1.047,1.474,1.474,0,0,1,2.158.074,1.5,1.5,0,0,1-.127,2.123,7.274,7.274,0,0,1-5.069,1.92Z" transform="translate(-6818.214 -11265.607)" fill="#6b452c"/>
  <path id="Контур_243" data-name="Контур 243" d="M6812.986,11627a1.474,1.474,0,0,1,1.636,1.344c.064.951-.438,1.531-1.517,1.655a1.5,1.5,0,0,0-1.367,1.019,1.362,1.362,0,0,0,.512,1.563,2.5,2.5,0,0,0,1,.34,1.5,1.5,0,0,1-.11,3,4.46,4.46,0,0,1-.158-8.917Z" transform="translate(-6767.176 -11590.704)" fill="#6b452c"/>
  <path id="Контур_244" data-name="Контур 244" d="M6815.038,12069.241a4.4,4.4,0,0,1-4.418,4.436,1.5,1.5,0,0,1-1.528-1.415,1.528,1.528,0,0,1,1.322-1.557,2.9,2.9,0,0,0,1.02-.312,1.279,1.279,0,0,0,.6-1.414,1.406,1.406,0,0,0-1.1-1.162c-.177-.042-.359-.054-.539-.079a1.479,1.479,0,0,1,.13-2.946A4.386,4.386,0,0,1,6815.038,12069.241Z" transform="translate(-6767.59 -12015.897)" fill="#6b452c"/>
  <path id="Контур_245" data-name="Контур 245" d="M7125.594,12274.857c-.1.516-.16,1.041-.309,1.539a1.486,1.486,0,0,1-1.661,1.014,1.47,1.47,0,0,1-1.23-1.617c.025-.3.122-.6.125-.9a1.769,1.769,0,0,0-2.363-1.793,1.5,1.5,0,1,1-.889-2.859,4.842,4.842,0,0,1,6.326,4.613Z" transform="translate(-7067.691 -12215.191)" fill="#6b452c"/>
  <path id="Контур_246" data-name="Контур 246" d="M5391.743,10991.138a6.049,6.049,0,0,0,4.775-4.631,3.556,3.556,0,0,0,.07-.782q.016-8.8.024-17.6.013-7.16.04-14.319.02-6.977.04-13.954a4.378,4.378,0,0,0-3-4.373,4.724,4.724,0,0,0-5.846,1.692,1.486,1.486,0,0,1-1.355.656,5.732,5.732,0,0,0-6,4.35,1.335,1.335,0,0,1-1.544,1.071,4.465,4.465,0,0,0-3.615,1.382,3.61,3.61,0,0,0-.743,3.991.809.809,0,0,0,.8.582,7.955,7.955,0,0,1,7.025,5.634,7.341,7.341,0,0,1,.216,1.733,1.422,1.422,0,0,1-1.386,1.472,1.35,1.35,0,0,1-1.538-1.291c.122-2.879-3.172-5.129-6.341-4.532a1.537,1.537,0,0,0-.551.223,5.38,5.38,0,0,0-1.021,8.145,1.656,1.656,0,0,0,.915.479,7.486,7.486,0,0,1,6.255,7.222,1.506,1.506,0,0,1-1.474,1.6,1.49,1.49,0,0,1-1.541-1.583,4.364,4.364,0,0,0-2.883-4.031,1.066,1.066,0,0,0-.819.1,4.6,4.6,0,0,0-.541,7.417,1.51,1.51,0,0,1,.477,1.994,4.481,4.481,0,0,0,3.687,6.352c1.308.179,1.688.542,1.772,1.834a4.7,4.7,0,0,0,3.794,4.2,4.48,4.48,0,0,0,4.509-2.559,4.083,4.083,0,0,0-1.077-4.847c-.136-.121-.284-.227-.418-.35a1.5,1.5,0,0,1-.227-2.024,1.471,1.471,0,0,1,2.055-.331,6.893,6.893,0,0,1,3.017,5.545,7.041,7.041,0,0,1-3.954,6.717c-.087.05-.176.1-.261.147-.016.01-.023.032-.063.09a6.052,6.052,0,0,0,6.726,2.579Zm-14.3-50.794a.8.8,0,0,0,.706-.512,8.641,8.641,0,0,1,7.231-4.983,1.193,1.193,0,0,0,.677-.293,7.687,7.687,0,0,1,7.48-2.252,7.515,7.515,0,0,1,6.165,7.6c-.119,2.766-.051,5.54-.057,8.311q-.017,7.25-.022,14.5-.011,11.436-.022,22.873a7.832,7.832,0,0,1-1.074,4.046c-3.6,6.089-12.871,6.414-16.391.071a1.036,1.036,0,0,0-.684-.439,7.959,7.959,0,0,1-6.544-5.662,1.011,1.011,0,0,0-.806-.809,7.433,7.433,0,0,1-5.169-8.765,1.134,1.134,0,0,0-.242-1.089,7.508,7.508,0,0,1-.085-9.228c.285-.383.613-.735.917-1.1-3.011-3.457-3.41-9.189,2.144-13.139A6.972,6.972,0,0,1,5377.446,10940.344Z" transform="translate(-5367.066 -10915.812)" fill="#6b452c"/>
  <path id="Контур_247" data-name="Контур 247" d="M5836.038,11298.146a6.8,6.8,0,0,0,5.537-2.658,4.756,4.756,0,0,0,.709-1.518,1.416,1.416,0,0,0-.9-1.707,1.512,1.512,0,0,0-1.866.717,3.814,3.814,0,0,1-4.3,2.1,4.292,4.292,0,0,1-2.208-1.048,1.477,1.477,0,0,0-2.159.075,1.5,1.5,0,0,0,.127,2.122A7.258,7.258,0,0,0,5836.038,11298.146Z" transform="translate(-5817.125 -11265.514)" fill="#6b452c"/>
  <path id="Контур_248" data-name="Контур 248" d="M6090.064,11626.895a1.475,1.475,0,0,0-1.635,1.345c-.064.95.438,1.529,1.516,1.652a1.5,1.5,0,0,1,1.367,1.019,1.365,1.365,0,0,1-.511,1.565,2.52,2.52,0,0,1-1.006.34,1.5,1.5,0,0,0,.111,3,4.46,4.46,0,0,0,.157-8.917Z" transform="translate(-6067.665 -11590.607)" fill="#6b452c"/>
  <path id="Контур_249" data-name="Контур 249" d="M6088.519,12069.143a4.4,4.4,0,0,0,4.418,4.435,1.5,1.5,0,0,0,1.528-1.416,1.53,1.53,0,0,0-1.322-1.557,2.9,2.9,0,0,1-1.02-.312,1.278,1.278,0,0,1-.6-1.412,1.4,1.4,0,0,1,1.1-1.161,5.236,5.236,0,0,1,.539-.081,1.479,1.479,0,0,0-.13-2.946A4.386,4.386,0,0,0,6088.519,12069.143Z" transform="translate(-6067.756 -12015.801)" fill="#6b452c"/>
  <path id="Контур_250" data-name="Контур 250" d="M5725.25,12274.762c.1.512.16,1.037.309,1.537a1.484,1.484,0,0,0,2.891-.605c-.024-.3-.122-.594-.125-.895a1.77,1.77,0,0,1,2.363-1.795,1.5,1.5,0,0,0,1.983-.877,1.524,1.524,0,0,0-1.094-1.982,4.845,4.845,0,0,0-6.326,4.615Z" transform="translate(-5714.942 -12215.096)" fill="#6b452c"/>
</svg>
