<svg xmlns="http://www.w3.org/2000/svg" xmlns:xlink="http://www.w3.org/1999/xlink" width="81.202" height="60" viewBox="0 0 81.202 60">
  <defs>
    <linearGradient id="linear-gradient" x1="0.689" y1="0.237" x2="-0.007" y2="1.053" gradientUnits="objectBoundingBox">
      <stop offset="0" stop-color="#ffaf24"/>
      <stop offset="1" stop-color="#ed1a56"/>
    </linearGradient>
  </defs>
  <path id="Контур_299" data-name="Контур 299" d="M3767.139,40.992a11.743,11.743,0,0,1,15.135-11.4l.1.014c.1.031.2.076.3.108a11.442,11.442,0,0,1,1.545.612,11.587,11.587,0,0,1,1.122.6c.2.12.388.253.575.39a11.222,11.222,0,0,1,1.539,1.263,11.783,11.783,0,0,1,1.345,1.635c.176.251.314.518.469.777.184.322.367.645.522.982a10.869,10.869,0,0,1,.449,1.126c.082.231.149.465.214.706a11.283,11.283,0,0,1,.308,1.388l.026.114,0,.169a11.956,11.956,0,0,1,.147,1.516,11.83,11.83,0,0,1-3.486,8.413c-.255.255-.555.439-.83.667a8.105,8.105,0,0,0,2.292,4.706,8.221,8.221,0,0,0,3.544,2.063c.439-.371.894-.72,1.3-1.128a20.686,20.686,0,0,0,6.1-14.723l-.006-.139,0-.014a20.492,20.492,0,0,0-.179-2.506c-.016-.127-.039-.247-.055-.373a20.193,20.193,0,0,0-.467-2.3l-.035-.133a20.547,20.547,0,0,0-2.022-4.873l-.008-.016a20.943,20.943,0,0,0-3.324-4.365,20.812,20.812,0,0,0-31.682,26.779l-3.722,3.72L3753.1,51.51l-6.31,6.312,5.261,5.261-5.261,5.259,6.31,6.31,5.261-5.259,5.259,5.259,6.312-6.31-5.261-5.259,4.03-4.03a20.563,20.563,0,0,0,4.959,2.034,24.422,24.422,0,0,1-3.22-11.911,11.8,11.8,0,0,1-3.3-8.181Zm36.41-26.334v8.924h9.56l-7.542,7.54a20.773,20.773,0,0,0-5.348-2.269,24.239,24.239,0,0,1,3.237,11.962,11.842,11.842,0,0,1-.255,16.519,11.157,11.157,0,0,1-.9.741,12.34,12.34,0,0,1-1.639,1.139l-.123.065a12.273,12.273,0,0,1-1.651.777c-.2.071-.412.124-.62.186a11.861,11.861,0,0,1-1.33.365,12.324,12.324,0,0,1-2.149.206,11.839,11.839,0,0,1-11.846-12.552l.014-.008a12.172,12.172,0,0,1,.959-4.122l0-.008a12.269,12.269,0,0,1,.633-1.157c.141-.243.249-.5.4-.728l-.006-.006a11.6,11.6,0,0,1,1.425-1.73c.263-.263.571-.457.851-.688a8.08,8.08,0,0,0-5.856-6.748c-.437.371-.892.716-1.3,1.126a20.857,20.857,0,0,0-1.735,2h0l-.028.041c-.372.484-.716.975-1.041,1.481l-.092.147c-.292.471-.572.949-.825,1.439-.053.108-.1.21-.159.316-.212.431-.414.865-.6,1.31-.076.182-.145.361-.214.547-.139.367-.273.737-.392,1.11-.086.271-.161.537-.233.808-.077.3-.159.592-.228.888-.078.349-.143.7-.2,1.049-.041.227-.08.459-.112.688-.059.406-.1.814-.133,1.222-.008.114-.029.222-.037.337l.012.006a20.712,20.712,0,0,0,6.016,16.058,21.071,21.071,0,0,0,2.171,1.865h0l.023.016a20.679,20.679,0,0,0,5.5,2.981c.182.065.359.133.543.194.341.11.682.208,1.026.3.283.076.563.147.849.21s.59.131.89.184c.374.069.751.12,1.128.167.233.029.463.067.7.088.626.057,1.257.092,1.9.092.677,0,1.349-.037,2.012-.1.335-.033.663-.092.994-.141s.643-.082.959-.141c.453-.088.9-.208,1.343-.324.18-.049.363-.082.541-.135.525-.153,1.036-.337,1.549-.529.088-.035.178-.061.27-.1.561-.222,1.11-.475,1.653-.749l.086-.039a20.815,20.815,0,0,0,7.854-30.223l7.024-7.026v8.507h8.924V14.65h-24.444Z" transform="translate(-3746.79 -14.65)" fill-rule="evenodd" fill="url(#linear-gradient)"/>
</svg>
