<svg id="_1911755767808" xmlns="http://www.w3.org/2000/svg" width="70.205" height="70.174" viewBox="0 0 70.205 70.174">
  <path id="Контур_228" data-name="Контур 228" d="M8350.829,23239.988a22.374,22.374,0,0,0-14.173,6.879,29.4,29.4,0,0,0-7.9,15.6,49.95,49.95,0,0,0,11.169-.725,45.324,45.324,0,0,0,10.682-3.348.367.367,0,0,0,.19-.146.791.791,0,0,0,.037-.307q-.007-7.245,0-14.492v-3.268h0Zm-7.124,29.221a1.677,1.677,0,0,1-1.694,1.672l-.048,0a1.724,1.724,0,0,1-1.183-.512,1.686,1.686,0,0,1-.5-1.184h0c0-.018,0,.008,0-.045a1.755,1.755,0,0,1,1.714-1.684h.037a1.679,1.679,0,0,1,1.185.512,1.736,1.736,0,0,1,.486,1.2v.039Zm-3.093,17.564a2.41,2.41,0,0,1-.479-.121h0a2,2,0,0,1-.973-.754,1.674,1.674,0,0,1-.268-1.174,1.791,1.791,0,0,1,.1-.371,5.51,5.51,0,0,1,1.5-2.23,6.8,6.8,0,0,1,2.309-1.322,1.561,1.561,0,0,1,1.213.084,1.752,1.752,0,0,1,.848.916,1.78,1.78,0,0,1,.023,1.254,1.521,1.521,0,0,1-.831.887,4.343,4.343,0,0,0-1.2.756,3.729,3.729,0,0,0-.842,1.131h0a1.778,1.778,0,0,1-.81.688c-.118.066-.236.131-.328.2l-.118.082Zm1.175-11.012a6.545,6.545,0,0,1-2.267-.441,5.819,5.819,0,0,1-1.881-1.207,1.926,1.926,0,0,1-.637-1.229,1.712,1.712,0,0,1,1.626-1.807,1.936,1.936,0,0,1,1.264.449,2.918,2.918,0,0,0,4.078-.072,2.214,2.214,0,0,1,1.354-.592,1.574,1.574,0,0,1,1.243.572,1.6,1.6,0,0,1,.419,1.314,2.146,2.146,0,0,1-.734,1.273,6.661,6.661,0,0,1-2.055,1.281,7.019,7.019,0,0,1-2.395.457Zm19.6-6.6a1.727,1.727,0,0,1,.488-1.2,1.7,1.7,0,0,1,1.182-.514h.045a1.759,1.759,0,0,1,1.707,1.689v.076a1.689,1.689,0,0,1-.53,1.184,1.735,1.735,0,0,1-1.21.479h-.032a1.683,1.683,0,0,1-1.18-.514A1.711,1.711,0,0,1,8361.392,23269.164Zm5.1-24.625a1.678,1.678,0,0,1-1.2-.463,1.715,1.715,0,0,1-.543-1.172v-.045a1.711,1.711,0,0,1,.454-1.205v0a1.7,1.7,0,0,1,1.167-.539h.044a1.691,1.691,0,0,1,1.742,1.625v.033a1.718,1.718,0,0,1-.454,1.219,1.7,1.7,0,0,1-1.177.549Zm8.264,51.01,0-.107c0-.316-.007-.6.008-.871a1.956,1.956,0,0,1,.517-1.285,1.728,1.728,0,0,1,2.43.021,1.949,1.949,0,0,1,.482,1.256c.015.291.011.586.007.9v.086h.108c.326-.006.624-.01.915.008a1.948,1.948,0,0,1,1.275.541,1.7,1.7,0,0,1-.056,2.424,1.955,1.955,0,0,1-1.263.467c-.273.012-.551.01-.865.006h-.114v.07c0,.309.006.6-.006.887h0a2.022,2.022,0,0,1-.485,1.3,1.608,1.608,0,0,1-1.213.531,1.627,1.627,0,0,1-1.224-.516,2.008,2.008,0,0,1-.511-1.291c-.014-.273-.011-.553-.007-.869V23299h-.055c-.29,0-.562,0-.832,0a2.066,2.066,0,0,1-1.35-.471h0a1.6,1.6,0,0,1-.527-1.244,1.616,1.616,0,0,1,.541-1.24,2.1,2.1,0,0,1,1.344-.484c.258-.01.518-.006.808,0Zm8.606-53.693h.075c.291,0,.552-.006.809,0a2.128,2.128,0,0,1,1.349.479,1.7,1.7,0,0,1,.016,2.475,2.092,2.092,0,0,1-1.343.492c-.257.008-.518.008-.812,0h-.089v.072c0,.311.007.6-.007.893a2,2,0,0,1-.5,1.291,1.694,1.694,0,0,1-2.439-.01,2.013,2.013,0,0,1-.491-1.295c-.012-.273-.009-.553-.006-.859v-.1l-.088,0c-.316,0-.611.008-.9-.008a1.987,1.987,0,0,1-1.288-.512,1.705,1.705,0,0,1,.011-2.422,1.961,1.961,0,0,1,1.25-.5c.289-.02.585-.014.911-.01l.109,0,0-.117c0-.34-.01-.65.01-.957a1.873,1.873,0,0,1,.5-1.2,1.714,1.714,0,0,1,2.387-.025,1.893,1.893,0,0,1,.528,1.234c.02.291.016.59.011.926Zm-58.317,32.895v0c-.07-.312-.138-.609-.2-.926a1.758,1.758,0,0,1,.224-1.236,1.707,1.707,0,0,1,1-.756,1.671,1.671,0,0,1,1.246.129,1.749,1.749,0,0,1,.827.953,5.171,5.171,0,0,1,.187.7l.015.068c.361,1.668.752,3.32,1.24,4.922a29.048,29.048,0,0,0,1.85,4.7,29.408,29.408,0,0,0,5.146,7.344,24.3,24.3,0,0,0,7.3,5.148,20.044,20.044,0,0,0,3.536,1.25,19.562,19.562,0,0,0,3.368.533v-6.348c-.211-.049-.41-.1-.519-.119a12.344,12.344,0,0,1-3.257-1.223,13.094,13.094,0,0,1-2.792-2.064,1.977,1.977,0,0,1-.634-1.232,1.7,1.7,0,0,1,1.635-1.824,1.95,1.95,0,0,1,1.29.5c.1.086.181.158.259.232s.136.127.2.182a9.739,9.739,0,0,0,1.986,1.344,8.714,8.714,0,0,0,1.873.684c0-.934,0,.783,0-1.064,0-2.314,0-4.59-.02-6.865l-.009.008s0,.006,0,0a1.325,1.325,0,0,0-.248-.187c-.271-.164-.586-.34-.9-.512a14.547,14.547,0,0,1-1.667-1.023h0a2.269,2.269,0,0,1-.2-.168,1.755,1.755,0,0,1-.592-1.113,1.626,1.626,0,0,1,.338-1.15,1.89,1.89,0,0,1,.139-.164,1.588,1.588,0,0,1,1.217-.553,2.171,2.171,0,0,1,1.325.547c.179.148.373.285.579.426v-13.811a49.892,49.892,0,0,1-12.08,3.365,52.572,52.572,0,0,1-12.687.281,5.116,5.116,0,0,0-1.385.051v0a4.517,4.517,0,0,0-3.349,2.658,4.587,4.587,0,0,0-.23,3.016,4.516,4.516,0,0,0,1.666,2.439,4.333,4.333,0,0,0,2.325.869Zm25.762,5.02v-.027c0-.033,0,.02-.01.035Zm3.482,17.816.355-.041c.514-.059,1.006-.115,1.493-.2a21.58,21.58,0,0,0,7.317-2.7,25.06,25.06,0,0,0,5.979-5.023,28.478,28.478,0,0,0,4.2-6.262,32.911,32.911,0,0,0,2.523-7.121,2.082,2.082,0,0,1,.825-1.406,2.142,2.142,0,0,1,1.613-.141,4.9,4.9,0,0,0,2.035.012,4.438,4.438,0,0,0,1.771-.844,4.567,4.567,0,0,0,1.612-2.348,4.556,4.556,0,0,0-1.838-5.043,4.759,4.759,0,0,0-2.768-.773c-.271.008-.552.018-.834.027a32.1,32.1,0,0,1-3.6-.012,23.626,23.626,0,0,1-15.706-7.486c-.16-.166-.322-.352-.471-.518-.4.238-.638.379-.882.525-1.186.705-2.337,1.391-3.449,2.09a.4.4,0,0,0-.109.158.744.744,0,0,0-.077.293q-.026,6.979-.014,13.953v1.369c.241-.164.461-.314.7-.467l.136-.092a2.266,2.266,0,0,1,.663-.346,1.643,1.643,0,0,1,1.1.08,1.676,1.676,0,0,1,.813.76,1.722,1.722,0,0,1,.2,1.066,1.774,1.774,0,0,1-.509.967,5.837,5.837,0,0,1-1.559,1.145,7.8,7.8,0,0,1-1.5.57v8.08a8.071,8.071,0,0,0,2.088-.641,8.224,8.224,0,0,0,2.11-1.443l.008-.006a1.968,1.968,0,0,1,1.308-.574,1.624,1.624,0,0,1,1.231.551v0l0,0h0a1.612,1.612,0,0,1,.445,1.281,2.054,2.054,0,0,1-.667,1.264,11.221,11.221,0,0,1-1.934,1.5,9.835,9.835,0,0,1-2.241,1.006c-.6.184-1.207.32-1.819.459l-.555.129Zm-36.822-28.391c.021-.076.063-.24.105-.406.075-.3.151-.594.247-.9a8,8,0,0,1,7.193-5.625c.038,0,.077,0,.116-.008.156-.564.3-1.1.436-1.631.355-1.357.706-2.7,1.163-3.992a33.606,33.606,0,0,1,5.015-9.414,29.2,29.2,0,0,1,7.96-7.129,24.457,24.457,0,0,1,5.469-2.5,25.77,25.77,0,0,1,5.654-1.086v-.012c0-.262,0-.525,0-.783a1.912,1.912,0,0,1,.485-1.254,1.7,1.7,0,0,1,2.436-.021,1.922,1.922,0,0,1,.511,1.285c.007.246,0,.494,0,.754v.025a27.684,27.684,0,0,1,3.348.482,23.14,23.14,0,0,1,3.531,1.033c.1.039.132.049.16.061.122.043.244.086.366.143a1.9,1.9,0,0,1,.976.928,1.723,1.723,0,0,1-.87,2.234,1.994,1.994,0,0,1-1.338.047c-.834-.236-1.657-.471-2.372-.666-.767-.211-1.553-.42-2.377-.627a7.528,7.528,0,0,0-1.176-.158l-.211-.018v16.479a38.833,38.833,0,0,0,3.358-2.234,29.185,29.185,0,0,0,3.243-2.793l.077-.078c.057-.061.114-.119.174-.174a1.882,1.882,0,0,1,1.232-.533,1.638,1.638,0,0,1,1.207.494,1.666,1.666,0,0,1,.523,1.213,1.812,1.812,0,0,1-.527,1.234c-.415.441-.853.848-1.29,1.254-.206.191-.412.383-.484.451-.113.107-.215.2-.321.289a20.935,20.935,0,0,0,6.765,4.961,22.026,22.026,0,0,0,8.187,1.865c-.116-.418-.23-.84-.344-1.258-.332-1.227-.655-2.422-1.051-3.58a27.9,27.9,0,0,0-2.184-4.844,28.8,28.8,0,0,0-3.092-4.4,2.516,2.516,0,0,1-.518-.875,1.6,1.6,0,0,1,.052-1.1h0a1.7,1.7,0,0,1,.577-.756,1.671,1.671,0,0,1,1.616-.205,1.806,1.806,0,0,1,.8.623l.3.408a57.472,57.472,0,0,1,3.545,5.2,28.453,28.453,0,0,1,2.264,4.984,35.633,35.633,0,0,1,1.369,5.3c.019.1.047.215.074.322.143.023.286.043.43.064a13.142,13.142,0,0,1,1.442.27,8.055,8.055,0,0,1,4.543,3.242,7.6,7.6,0,0,1,1.327,5.313,8.4,8.4,0,0,1-2.7,5.172,7.722,7.722,0,0,1-5.322,1.961.527.527,0,0,0-.342.063.776.776,0,0,0-.152.344,35.029,35.029,0,0,1-3.986,9.162,30.554,30.554,0,0,1-6.617,7.5,26.077,26.077,0,0,1-6.618,3.982,24.2,24.2,0,0,1-7.342,1.729,2.44,2.44,0,0,0-.248.035c-.008.18,0,.367,0,.555.021.945.041,1.887-1.158,2.469l-.076.037h-.977l-.076-.037c-1.2-.584-1.181-1.525-1.16-2.473,0-.186.009-.371,0-.551-.085-.016-.166-.027-.245-.035a24.5,24.5,0,0,1-7.994-2.01,26.617,26.617,0,0,1-6.895-4.488,30.841,30.841,0,0,1-6-7.215,35.043,35.043,0,0,1-3.67-8.623.9.9,0,0,0-.162-.375.576.576,0,0,0-.373-.074,7.728,7.728,0,0,1-3.463-.738,8.345,8.345,0,0,1-2.826-2.27,7.183,7.183,0,0,1-1.109-1.9,13.425,13.425,0,0,1-.619-2.053l-.01-.045v-1.98l.013-.047Z" transform="translate(-8317.459 -23233.934)" fill="#6b452c"/>
  <path id="Контур_229" data-name="Контур 229" d="M10047.891,23354.6v3.457l.2.016a7.523,7.523,0,0,1,1.176.16c.824.205,1.61.414,2.377.625.714.2,1.538.43,2.372.666a1.991,1.991,0,0,0,1.337-.047,1.721,1.721,0,0,0,.87-2.234,1.909,1.909,0,0,0-.975-.928c-.122-.055-.244-.1-.366-.143-.028-.01-.061-.021-.161-.061a23.122,23.122,0,0,0-3.53-1.031A27.756,27.756,0,0,0,10047.891,23354.6Zm0,19.93v4.168a.969.969,0,0,1,.046-.117.405.405,0,0,1,.11-.158c1.111-.7,2.264-1.385,3.448-2.09l.882-.525c.148.168.312.352.471.52a24.37,24.37,0,0,0,7.153,5.246,24.107,24.107,0,0,0,8.554,2.238,31.625,31.625,0,0,0,3.6.012l.835-.025a4.748,4.748,0,0,1,2.768.771,4.555,4.555,0,0,1,1.837,5.045,4.583,4.583,0,0,1-1.612,2.348,4.453,4.453,0,0,1-1.771.842,4.894,4.894,0,0,1-2.034-.012,2.144,2.144,0,0,0-1.614.141,2.086,2.086,0,0,0-.824,1.406,33.016,33.016,0,0,1-2.523,7.123,28.512,28.512,0,0,1-4.2,6.26,25.019,25.019,0,0,1-5.979,5.023,21.568,21.568,0,0,1-7.316,2.7c-.488.086-.98.143-1.493.2l-.336.039v3.457a2.085,2.085,0,0,1,.208-.029,24.193,24.193,0,0,0,7.341-1.729,25.948,25.948,0,0,0,6.618-3.982,30.578,30.578,0,0,0,6.618-7.5,35.031,35.031,0,0,0,3.985-9.162.743.743,0,0,1,.153-.342.52.52,0,0,1,.342-.064,7.722,7.722,0,0,0,5.322-1.959,8.418,8.418,0,0,0,2.7-5.174,7.594,7.594,0,0,0-1.327-5.312,8.061,8.061,0,0,0-4.543-3.242,12.633,12.633,0,0,0-1.441-.268c-.144-.023-.288-.043-.43-.066-.028-.107-.057-.219-.075-.32a35.776,35.776,0,0,0-1.368-5.3,28.6,28.6,0,0,0-2.265-4.984,57.664,57.664,0,0,0-3.544-5.2l-.3-.408a1.82,1.82,0,0,0-.8-.623,1.684,1.684,0,0,0-1.616.205,1.718,1.718,0,0,0-.577.756h0a1.607,1.607,0,0,0-.053,1.1,2.525,2.525,0,0,0,.518.873,28.966,28.966,0,0,1,3.093,4.4,27.858,27.858,0,0,1,2.184,4.846c.395,1.158.718,2.352,1.05,3.578.113.418.228.84.344,1.258a21.944,21.944,0,0,1-8.186-1.865,20.938,20.938,0,0,1-6.766-4.961c.106-.092.208-.182.321-.289l.484-.451c.438-.406.876-.812,1.29-1.252a1.825,1.825,0,0,0,.528-1.236,1.662,1.662,0,0,0-.523-1.211,1.641,1.641,0,0,0-1.207-.5,1.894,1.894,0,0,0-1.233.533c-.06.055-.117.115-.174.174l-.076.078a29.42,29.42,0,0,1-3.244,2.795A39.393,39.393,0,0,1,10047.891,23374.527Zm0,19.639v3.711a7.8,7.8,0,0,0,1.5-.568,5.9,5.9,0,0,0,1.559-1.145,1.779,1.779,0,0,0,.509-.969,1.718,1.718,0,0,0-.2-1.066,1.665,1.665,0,0,0-.812-.758,1.643,1.643,0,0,0-1.1-.082,2.246,2.246,0,0,0-.663.348c-.037.025-.075.051-.137.09C10048.323,23393.871,10048.115,23394.012,10047.891,23394.166Zm0,11.791v3.527c.178-.043.356-.082.535-.123.612-.139,1.216-.277,1.818-.461a9.739,9.739,0,0,0,2.242-1.006,11.258,11.258,0,0,0,1.934-1.5,2.064,2.064,0,0,0,.667-1.264,1.615,1.615,0,0,0-.445-1.279h0l0,0v0a1.62,1.62,0,0,0-1.232-.553,1.977,1.977,0,0,0-1.307.574l-.008.008a8.221,8.221,0,0,1-2.111,1.441,7.905,7.905,0,0,1-2.087.641Zm7.079-18.7a1.719,1.719,0,0,1,.488-1.2,1.686,1.686,0,0,1,1.181-.514l.046,0a1.761,1.761,0,0,1,1.706,1.689v.076a1.7,1.7,0,0,1-.53,1.184,1.746,1.746,0,0,1-1.211.48l-.031,0a1.686,1.686,0,0,1-1.181-.514A1.71,1.71,0,0,1,10054.97,23387.258Zm5.1-24.623a1.7,1.7,0,0,1-1.2-.463,1.723,1.723,0,0,1-.543-1.172v-.047a1.7,1.7,0,0,1,.453-1.2v0a1.688,1.688,0,0,1,1.167-.539l.044,0a1.693,1.693,0,0,1,1.742,1.627v.031a1.723,1.723,0,0,1-.454,1.219,1.7,1.7,0,0,1-1.177.549Zm8.263,51.008v-.107c0-.316-.008-.6.008-.871a1.961,1.961,0,0,1,.517-1.285,1.643,1.643,0,0,1,1.239-.488,1.62,1.62,0,0,1,1.189.512,1.935,1.935,0,0,1,.483,1.254c.014.291.011.586.007.9v.088l.108,0c.326,0,.624-.01.916.008a1.953,1.953,0,0,1,1.275.543,1.7,1.7,0,0,1-.056,2.422,1.969,1.969,0,0,1-1.263.469c-.273.01-.552.008-.865,0h-.114v.072c0,.307,0,.6-.006.885v0a2.021,2.021,0,0,1-.486,1.3,1.682,1.682,0,0,1-2.437.014,2,2,0,0,1-.511-1.289c-.014-.275-.01-.555-.006-.869v-.115h-.054c-.29,0-.562,0-.832,0a2.081,2.081,0,0,1-1.351-.471h0a1.714,1.714,0,0,1,.014-2.484,2.1,2.1,0,0,1,1.345-.486c.257-.008.518-.006.808,0Zm8.606-53.693h.075c.292,0,.553,0,.81,0a2.129,2.129,0,0,1,1.349.48,1.694,1.694,0,0,1,.016,2.473,2.082,2.082,0,0,1-1.343.492c-.257.01-.518.008-.812,0h-.09v.074c0,.309.007.6-.007.891a2,2,0,0,1-.5,1.293,1.7,1.7,0,0,1-2.44-.012,2.015,2.015,0,0,1-.491-1.295c-.011-.273-.008-.551-.006-.859v-.094l-.087,0c-.317,0-.611.006-.9-.008a2,2,0,0,1-1.289-.512,1.71,1.71,0,0,1,.011-2.424,1.974,1.974,0,0,1,1.251-.5c.288-.018.584-.014.91-.01l.109,0v-.117c0-.338-.01-.65.01-.955a1.868,1.868,0,0,1,.5-1.2,1.708,1.708,0,0,1,2.386-.025,1.879,1.879,0,0,1,.529,1.232c.02.293.015.59.01.928Z" transform="translate(-10011.036 -23352.027)" fill="#6b452c"/>
  <path id="Контур_230" data-name="Контур 230" d="M10045.79,23354.4v3.461h.038v0l.009,0h.02v0l.183.016a7.317,7.317,0,0,1,1.176.158c.824.207,1.61.416,2.377.627.714.2,1.537.428,2.372.666a1.99,1.99,0,0,0,1.337-.049,1.719,1.719,0,0,0,.87-2.234,1.9,1.9,0,0,0-.976-.926c-.121-.057-.243-.1-.365-.145l-.161-.059a22.941,22.941,0,0,0-3.53-1.033,28.108,28.108,0,0,0-3.348-.484h0Zm0,19.959v3.992l.358-.223.053-.031.1-.066.009-.006c1.012-.629,2.055-1.25,3.126-1.887.244-.146.482-.287.882-.527.148.168.311.352.471.52a23.649,23.649,0,0,0,15.707,7.486,32.083,32.083,0,0,0,3.6.012c.282-.01.563-.02.835-.027a4.744,4.744,0,0,1,2.767.773,4.552,4.552,0,0,1,1.838,5.043,4.575,4.575,0,0,1-1.612,2.348,4.431,4.431,0,0,1-1.771.844,4.9,4.9,0,0,1-2.035-.012,2.143,2.143,0,0,0-1.613.139,2.086,2.086,0,0,0-.824,1.408,33,33,0,0,1-2.523,7.121,28.42,28.42,0,0,1-4.2,6.26,25.028,25.028,0,0,1-5.979,5.025,21.655,21.655,0,0,1-7.317,2.7c-.487.086-.979.141-1.492.2l-.356.043v-.08h-.025v4.814c.016-.234.011-.477,0-.719,0-.187-.008-.375,0-.555a1.952,1.952,0,0,1,.247-.035,24.243,24.243,0,0,0,7.342-1.729,26.06,26.06,0,0,0,6.618-3.982,30.594,30.594,0,0,0,6.618-7.5,35.059,35.059,0,0,0,3.985-9.162.764.764,0,0,1,.153-.344.533.533,0,0,1,.342-.064,7.713,7.713,0,0,0,5.322-1.959,8.407,8.407,0,0,0,2.7-5.172,7.6,7.6,0,0,0-1.327-5.314,8.067,8.067,0,0,0-4.543-3.242,13.548,13.548,0,0,0-1.441-.268c-.144-.021-.288-.041-.43-.064-.028-.109-.057-.219-.075-.322a35.838,35.838,0,0,0-1.368-5.3,28.511,28.511,0,0,0-2.265-4.982,57.972,57.972,0,0,0-3.544-5.2l-.3-.406a1.814,1.814,0,0,0-.795-.625,1.682,1.682,0,0,0-2.194.961h0a1.607,1.607,0,0,0-.053,1.1,2.533,2.533,0,0,0,.518.875,28.95,28.95,0,0,1,3.093,4.395,28.064,28.064,0,0,1,2.184,4.846c.4,1.158.718,2.352,1.05,3.58.113.416.228.84.344,1.258a21.983,21.983,0,0,1-8.186-1.867,20.9,20.9,0,0,1-6.765-4.961c.105-.09.207-.18.32-.287.073-.07.278-.26.484-.451.438-.406.876-.812,1.29-1.254a1.82,1.82,0,0,0,.528-1.234,1.666,1.666,0,0,0-.523-1.213,1.649,1.649,0,0,0-1.207-.5,1.9,1.9,0,0,0-1.233.533c-.06.055-.117.115-.174.174l-.076.078a29.009,29.009,0,0,1-3.244,2.795,39.136,39.136,0,0,1-3.358,2.234v-.006Zm.025,34.938.556-.129c.611-.139,1.216-.277,1.818-.459a9.816,9.816,0,0,0,2.241-1.006,11.265,11.265,0,0,0,1.935-1.5,2.068,2.068,0,0,0,.667-1.266,1.617,1.617,0,0,0-.445-1.279h0l0,0v0a1.633,1.633,0,0,0-1.232-.553,1.974,1.974,0,0,0-1.308.576l-.007.006a8.229,8.229,0,0,1-2.111,1.443,8.064,8.064,0,0,1-2.087.641v-.025h-.047v3.557Zm.021-11.611a7.8,7.8,0,0,0,1.5-.57,5.833,5.833,0,0,0,1.558-1.145,1.776,1.776,0,0,0,.51-.967,1.713,1.713,0,0,0-.2-1.066,1.669,1.669,0,0,0-.812-.76,1.631,1.631,0,0,0-1.1-.08,2.208,2.208,0,0,0-.663.346c-.037.025-.075.051-.137.09-.238.154-.458.3-.7.469v-.951h0v4.635Zm7.078-10.619a1.724,1.724,0,0,1,.488-1.2,1.686,1.686,0,0,1,1.181-.514h.046a1.757,1.757,0,0,1,1.706,1.688v.078a1.694,1.694,0,0,1-.531,1.184,1.74,1.74,0,0,1-1.21.479l-.031,0a1.676,1.676,0,0,1-1.181-.512A1.717,1.717,0,0,1,10052.915,23387.066Zm5.1-24.625a1.693,1.693,0,0,1-1.2-.463,1.715,1.715,0,0,1-.543-1.172v-.045a1.706,1.706,0,0,1,.453-1.205v0a1.7,1.7,0,0,1,1.167-.539h.044a1.69,1.69,0,0,1,1.742,1.625v.031a1.72,1.72,0,0,1-.454,1.219,1.7,1.7,0,0,1-1.177.551Zm8.263,51.01v-.109c0-.314-.008-.6.008-.871a1.96,1.96,0,0,1,.516-1.283,1.728,1.728,0,0,1,2.43.021,1.94,1.94,0,0,1,.483,1.256c.014.289.011.586.007.9v.086l.108,0c.326,0,.624-.008.916.01a1.94,1.94,0,0,1,1.275.541,1.7,1.7,0,0,1-.056,2.424,1.979,1.979,0,0,1-1.263.467c-.273.012-.552.01-.865.006h-.114v.07c0,.307,0,.6-.006.887h0a2.026,2.026,0,0,1-.486,1.3,1.6,1.6,0,0,1-1.213.529,1.621,1.621,0,0,1-1.224-.514,2.012,2.012,0,0,1-.511-1.291c-.014-.275-.01-.553-.006-.869v-.113h-.055c-.29,0-.562,0-.832,0a2.071,2.071,0,0,1-1.351-.471h0a1.6,1.6,0,0,1-.526-1.244,1.616,1.616,0,0,1,.541-1.24,2.091,2.091,0,0,1,1.344-.484c.258-.01.518-.008.808-.006Zm8.606-53.693.075,0c.292,0,.553,0,.81.006a2.128,2.128,0,0,1,1.349.479,1.7,1.7,0,0,1,.016,2.475,2.091,2.091,0,0,1-1.343.49c-.257.01-.518.008-.812.006h-.09v.072c0,.311.007.6-.007.893a2,2,0,0,1-.5,1.291,1.7,1.7,0,0,1-2.439-.01,2.02,2.02,0,0,1-.492-1.3c-.011-.271-.009-.551,0-.859v-.094l-.088,0c-.317,0-.611.008-.9-.008a1.989,1.989,0,0,1-1.288-.512,1.708,1.708,0,0,1,.011-2.422,1.951,1.951,0,0,1,1.251-.5c.289-.02.584-.014.91-.01l.109,0,0-.117c0-.34-.009-.652.011-.957a1.868,1.868,0,0,1,.5-1.2,1.713,1.713,0,0,1,2.386-.025,1.884,1.884,0,0,1,.529,1.234c.02.291.015.59.01.926Z" transform="translate(-10008.98 -23351.834)" fill="#ff5638"/>
</svg>
