<svg xmlns="http://www.w3.org/2000/svg" width="75" height="76.222" viewBox="0 0 75 76.222">
  <g id="Сгруппировать_24" data-name="Сгруппировать 24" transform="translate(1498.784 -1970.267)">
    <g id="Сгруппировать_23" data-name="Сгруппировать 23" transform="translate(-1498.784 1970.267)">
      <g id="_1911755781104">
        <path id="Контур_265" data-name="Контур 265" d="M481.637,10407.057l-9.444,6.213,9.444,5.1v-11.313Zm28.235,35.039a1.713,1.713,0,0,1-1.712-1.706q0-.393,0-.777t.012-.772q.124-4.745.253-9.489.33-12.227.62-24.445a4.049,4.049,0,0,1,.429-1.876,3.837,3.837,0,0,1,1.351-1.386c4.48-2.929,8.867-5.873,13.254-8.817l3.465-2.324a5.544,5.544,0,0,0,1.895-2.232,4.206,4.206,0,0,0,.4-2.606,4.6,4.6,0,0,0-1.368-2.36,4.465,4.465,0,0,0-2.418-1.184,3.988,3.988,0,0,0-.878-.012,5.377,5.377,0,0,0-.959.186c-4.433,1.295-9.013,2.662-13.591,4.029l-2.339.7c-.074.021-.139.042-.193.06a3.107,3.107,0,0,0-1.675,1.13,1.882,1.882,0,0,0-.18,1.627l.044.138a2.191,2.191,0,0,0,1.254,1.347,3.073,3.073,0,0,0,2.127-.021l.072-.025q4.257-1.5,8.508-3.025l5.523-1.968c.3-.106.617-.2.976-.3.178-.054.368-.109.569-.173l.257-.078,1.157,3.139-1.15.424v0c-.612.227-1.191.441-1.793.656l-2.716.97c-3.389,1.21-6.777,2.42-10.311,3.668-.064.022-.135.047-.213.071h0a6.19,6.19,0,0,1-4.591-.227,5.8,5.8,0,0,1-2.962-3.378c-.017-.049-.039-.114-.064-.193,0,0-.022-.074-.028-.087a5.183,5.183,0,0,1,.481-4.208,6.363,6.363,0,0,1,3.625-2.74l.118-.037c1.763-.534,3.679-1.094,5.594-1.652,3.484-1.019,6.969-2.037,10.438-3.177a7.754,7.754,0,0,1,5.561.388,7.984,7.984,0,0,1,3.955,3.957,7.7,7.7,0,0,1,.318,5.4,8.211,8.211,0,0,1-3.242,4.47c-2.619,1.768-5.3,3.573-8.118,5.459q-4.1,2.739-8.145,5.418a2.184,2.184,0,0,0-.758.766,2.27,2.27,0,0,0-.236,1.05q-.347,14.48-.747,28.958c-.05,1.873-.086,3.75-.15,5.622a1.709,1.709,0,0,1-1.712,1.649Zm-8.445-61.544a11.7,11.7,0,0,0-2.471-6.931,10.785,10.785,0,0,0-5.866-4.077,6.944,6.944,0,0,0-.841-.151,5.167,5.167,0,0,0-5.906,4.088,7.156,7.156,0,0,0-.147.828,11.908,11.908,0,0,0,7.335,11.833,7.539,7.539,0,0,0,2.533.469,5.045,5.045,0,0,0,4.943-3.485A7.635,7.635,0,0,0,501.428,10380.552Zm-9.283,11.682c-.027-.236-.05-.46-.073-.678a14.306,14.306,0,0,0-.324-2.121c-.055-.21-.448-.44-.777-.634l-.135-.079a17.056,17.056,0,0,1-6.239-6.053,14.873,14.873,0,0,1-1.83-8.491,9.976,9.976,0,0,1,.134-1.138,8.6,8.6,0,0,1,3.191-5.363,8.87,8.87,0,0,1,6.014-1.784,10.186,10.186,0,0,1,1.179.142h0c.071.011.145.025.22.041a14.346,14.346,0,0,1,8.673,6.116,14.131,14.131,0,0,1,2.574,10.239q-.02.116-.041.217a8.558,8.558,0,0,1-8.693,7.414c-.152.007-.32.027-.523.051l-.072.008c.036.269.076.553.115.835.115.825.228,1.631.3,2.461a2.205,2.205,0,0,1-.4,1.793,2.3,2.3,0,0,1-1.772.536c-.594,0-1.19,0-1.785.01-1.592.016-3.185.03-4.757-.1a13.007,13.007,0,0,0-4.475.381,11.654,11.654,0,0,0-3.891,1.885c-2.589,1.906-5.168,3.826-7.706,5.78s-5.049,3.958-7.5,6.031a5.743,5.743,0,0,0-1.415,1.74,4.665,4.665,0,0,0-.492,2.789,5.163,5.163,0,0,0,1.205,2.636,6.578,6.578,0,0,0,2.021,1.583l3.391,1.753,13.745,7.1a2.641,2.641,0,0,0,1.763.35,1.758,1.758,0,0,0,1.154-.977,2.291,2.291,0,0,0,.223-1.765,2.388,2.388,0,0,0-1.2-1.354q-3.473-1.9-6.952-3.784c-2.136-1.159-4.494-2.436-6.959-3.769a4.47,4.47,0,0,1-1.645-1.4,2.356,2.356,0,0,1-.411-1.2,2.311,2.311,0,0,1,.295-1.223,4.29,4.29,0,0,1,1.446-1.475l2.015-1.336c3.345-2.22,6.691-4.439,10.113-6.626a3.541,3.541,0,0,1,1.255-.472,2.012,2.012,0,0,1,1.152.089,1.419,1.419,0,0,1,.628.835,4.349,4.349,0,0,1,.245,1.347q.044,3.661.042,7.325t-.023,7.323a1.98,1.98,0,0,0,.156.9,1.635,1.635,0,0,0,.661.654h0a5.722,5.722,0,0,1,2.117,2.27,5.648,5.648,0,0,1-.214,5.51,5.7,5.7,0,0,1-2.279,2.084,1.535,1.535,0,0,0-.7.595,1.762,1.762,0,0,0-.158.879c.027,2.308.023,4.616.018,6.96l0,1.272a1.713,1.713,0,0,1-.5,1.212h0a1.707,1.707,0,0,1-1.21.5h-.142a1.712,1.712,0,0,1-1.712-1.7l-.012-1.234c-.022-2.107-.044-4.2.06-6.282a3,3,0,0,0-.341-1.779,3.319,3.319,0,0,0-1.452-1.149h0q-4.039-1.973-8.088-4.063-4-2.057-8.015-4.2v0a10.149,10.149,0,0,1-2.52-1.88,8.674,8.674,0,0,1-1.444-10.259h0a10.191,10.191,0,0,1,1.911-2.52q1.2-1.169,2.483-2.261t2.6-2.08c1.841-1.376,3.687-2.751,5.565-4.11s3.754-2.679,5.679-3.959a14.341,14.341,0,0,1,4.453-1.982,15.445,15.445,0,0,1,4.977-.4c1.192.092,2.388.068,3.63.046.495-.01,1-.019,1.46-.021Z" transform="translate(-458.323 -10365.874)" fill="#6b452c"/>
        <path id="Контур_266" data-name="Контур 266" d="M2501.2,10419.783c.111-.176.2-.326.273-.465a3.337,3.337,0,0,1,.5-.738q1.931-1.951,3.879-3.886,1.439-1.434,2.876-2.874a2.376,2.376,0,0,1,1.182-.718,1.409,1.409,0,0,1,1.322.479,1.44,1.44,0,0,1,.466,1.312,2.337,2.337,0,0,1-.719,1.188q-1.271,1.257-2.529,2.529c-1.4,1.406-2.795,2.813-4.255,4.209h0a1.878,1.878,0,0,1-.839.42,2.461,2.461,0,0,1-1,.041c-.363-.072-.6-.424-.846-.789a4.552,4.552,0,0,0-.29-.4l-.122-.146Zm2.474-10.038c-.052.243-.08.379-.1.49-.048.24-.08.4-.125.549q-.495,1.657-.993,3.313c-.511,1.7-1.022,3.4-1.49,4.979a2.411,2.411,0,0,1-.68,1.187,1.4,1.4,0,0,1-1.392.215,1.462,1.462,0,0,1-1.049-.919,2.252,2.252,0,0,1,.058-1.379c.469-1.531.968-3.2,1.466-4.866.365-1.22.73-2.442,1.063-3.541h0v0a2.214,2.214,0,0,1,.642-1.073,1.292,1.292,0,0,1,1.269-.221l0,0h0a2.366,2.366,0,0,1,.978.744c.1.105.189.205.266.272l.115.1Z" transform="translate(-2449.635 -10407.497)" fill="#ff5638"/>
        <path id="Контур_267" data-name="Контур 267" d="M1743.906,12399.837a3.934,3.934,0,0,0-.307-.294c-.343-.309-.73-.657-.745-1.09a1.991,1.991,0,0,1,.35-1.03,1.477,1.477,0,0,1,.777-.669q2.255-.529,4.529-.981t4.572-.829a1.557,1.557,0,0,1,1,.326,1.668,1.668,0,0,1,.688.818v.009a1.7,1.7,0,0,1-.227,1.043h0a1.435,1.435,0,0,1-.738.75h-.007c-2.376.569-4.733,1.042-7.238,1.545-.908.182-1.828.366-2.407.484l-.149.03-.1-.114Zm-1.484,1.216c.227.082.421.148.593.207.319.109.566.194.826.3,1.338.567,2.427,1.035,3.518,1.5l1.65.709a2.8,2.8,0,0,1,1.161.792,1.377,1.377,0,0,1,.1,1.484,1.43,1.43,0,0,1-1.13.951,2.644,2.644,0,0,1-1.391-.277c-.608-.265-1.191-.51-1.773-.756-1.332-.56-2.663-1.12-3.94-1.756a1.816,1.816,0,0,1-.7-.74,2.094,2.094,0,0,1-.289-1.012c.012-.407.392-.727.751-1.029a4.233,4.233,0,0,0,.347-.312l.118-.125.161.058Zm6.741-14.357c.095.084.211.171.327.257a1.89,1.89,0,0,1,.728.782,1.971,1.971,0,0,1,.085.859,1.3,1.3,0,0,1-.291.737c-.908.957-1.828,1.91-2.767,2.849s-1.88,1.846-2.859,2.743c0,0-.007.008-.009.01a1.454,1.454,0,0,1-1.031.211,1.651,1.651,0,0,1-.993-.378l0,0a1.729,1.729,0,0,1-.319-1.026,1.515,1.515,0,0,1,.261-1.012c1.563-1.71,3.21-3.321,4.856-4.931l.642-.629a1.751,1.751,0,0,1,.68-.355c.122-.044.256-.092.412-.16l.154-.067.126.112Z" transform="translate(-1710.787 -12337.5)" fill="#ff5638"/>
      </g>
    </g>
  </g>
</svg>
