<svg id="_1911755783504" xmlns="http://www.w3.org/2000/svg" width="70.156" height="70.174" viewBox="0 0 70.156 70.174">
  <path id="Контур_281" data-name="Контур 281" d="M2456.7,16822.963l16.954-17.01c-.034-.084-.036-.09-.071-.172h-10.237a2.92,2.92,0,0,1,0-5.84h17.268a3.128,3.128,0,0,1,3.128,3.129v17.289a2.9,2.9,0,0,1-2.9,2.9h0a2.9,2.9,0,0,1-2.9-2.9v-10.123l-17.006,17.02A26.8,26.8,0,0,0,2456.7,16822.963Z" transform="translate(-2413.587 -16799.941)" fill="#ff5638"/>
  <path id="Контур_282" data-name="Контур 282" d="M458.875,17605.9a26.5,26.5,0,1,1-26.5,26.506A26.505,26.505,0,0,1,458.875,17605.9Zm0,5.887a20.618,20.618,0,1,1-20.618,20.619A20.618,20.618,0,0,1,458.875,17611.787Z" transform="translate(-432.37 -17588.736)" fill="#6b452c" fill-rule="evenodd"/>
</svg>
