<svg xmlns="http://www.w3.org/2000/svg" xmlns:xlink="http://www.w3.org/1999/xlink" width="59.162" height="70" viewBox="0 0 59.162 70">
  <defs>
    <linearGradient id="linear-gradient" x1="0.689" y1="0.237" x2="-0.007" y2="1.053" gradientUnits="objectBoundingBox">
      <stop offset="0" stop-color="#ffaf24"/>
      <stop offset="1" stop-color="#ed1a56"/>
    </linearGradient>
  </defs>
  <path id="Контур_309" data-name="Контур 309" d="M90.265,1255.025h0c5.493,0,11.949-4.876,19.189-14.49l1.157-1.536-1.793-.688a35.37,35.37,0,0,0-11.337-2.1c-8.758,0-14.048,4.687-14.935,13.194a33.078,33.078,0,0,0-2.323,2.569,27.1,27.1,0,0,0-6.335-11.72l-3.047,2.68c6.111,6.948,6.243,13.21,5.7,16.508a35.9,35.9,0,0,0-8.335-1.067c-7.071,0-12.115,2.7-14.585,7.819-5.571,11.535-.1,28.3,12.456,38.164a8.213,8.213,0,0,0,5.167,1.852,11.511,11.511,0,0,0,6.8-2.647,11.491,11.491,0,0,0,6.8,2.647h0a8.228,8.228,0,0,0,5.167-1.852c12.557-9.865,18.027-26.629,12.458-38.164-2.47-5.115-7.511-7.819-14.585-7.819a34.929,34.929,0,0,0-7.218.811,20.587,20.587,0,0,0-.033-4.909,29.426,29.426,0,0,1,2.52-3.026A8.608,8.608,0,0,0,90.265,1255.025Zm7.218-15.915a27.527,27.527,0,0,1,4.72.44,35.484,35.484,0,0,0-16.087,6.754C87.656,1241.479,91.4,1239.11,97.483,1239.11ZM85.52,1249a34.011,34.011,0,0,1,19.974-8.086c-7.379,9.2-12.318,11.214-15.226,11.214h0a5.777,5.777,0,0,1-4.819-2.647c.019-.165.047-.319.071-.483Z" transform="translate(-51.451 -1236.21)" fill-rule="evenodd" fill="url(#linear-gradient)"/>
</svg>
