<svg xmlns="http://www.w3.org/2000/svg" xmlns:xlink="http://www.w3.org/1999/xlink" width="55.312" height="75" viewBox="0 0 55.312 75">
  <defs>
    <linearGradient id="linear-gradient" x1="0.689" y1="0.237" x2="-0.007" y2="1.053" gradientUnits="objectBoundingBox">
      <stop offset="0" stop-color="#ffaf24"/>
      <stop offset="1" stop-color="#ed1a56"/>
    </linearGradient>
  </defs>
  <path id="Контур_306" data-name="Контур 306" d="M3858.933,1279.486l1.374.793,1.942-3.363-1.374-.793Zm-7.841-29.309,3.364,1.943.792-1.371-3.363-1.943Zm0,20.843.793,1.374,3.363-1.943-.792-1.374Zm39.27-20.843-.792-1.371-3.366,1.943.792,1.373Zm-7.841-8.42-1.371-.793-1.943,3.363,1.374.793,1.943-3.363Zm-11-3.373h-1.585v3.885h1.585Zm-19.123,21.424h-3.885v1.585h3.885Zm6.538-18.049,1.943,3.363,1.374-.79-1.943-3.366Zm27.273,28.693,3.366,1.943.79-1.374-3.363-1.943ZM3888,1239l.7-1.084.884.572,3.2-4.958-5.017-3.241-3.2,4.958.884.571-.63.976a27.426,27.426,0,0,0-11.378-3.737v-1.282a9.47,9.47,0,1,0-5.426,0v1.282a27.444,27.444,0,0,0-11.306,3.695l-.727-1.15.889-.562-3.156-4.989-5.047,3.192,3.157,4.988.891-.562.809,1.279a27.656,27.656,0,1,0,34.47.052Zm-25.1-16.294a7.827,7.827,0,1,1,10.539,7.333v-2.314h1.477v-5.435h-8.38v5.435h1.479v2.314A7.83,7.83,0,0,1,3862.9,1222.709Zm7.827,61.5a23.624,23.624,0,1,1,23.623-23.623A23.649,23.649,0,0,1,3870.728,1284.2Zm18.331-24.4v1.585h3.885v-1.585Zm-19.124,23.053h1.585v-3.885h-1.585Zm4.685-26.515a5.753,5.753,0,1,0,1.87,4.236,5.8,5.8,0,0,0-.162-1.333l9.558-5.955-1.4-2.385Zm-3.893,5.964a1.729,1.729,0,1,1,1.729-1.729A1.73,1.73,0,0,1,3870.728,1262.308Zm8.479,14.608,1.943,3.363,1.371-.793-1.942-3.363-1.374.793Z" transform="translate(-3843.07 -1213.24)" fill-rule="evenodd" fill="url(#linear-gradient)"/>
</svg>
