<svg xmlns="http://www.w3.org/2000/svg" width="45.711" height="81.601" viewBox="0 0 45.711 81.601">
  <g id="Сгруппировать_26" data-name="Сгруппировать 26" transform="translate(1199.6 -1905.363)">
    <path id="Контур_283" data-name="Контур 283" d="M71.177,38.226a8.867,8.867,0,0,1-4.726,6.168,8.42,8.42,0,0,1-3.565,1.068c-8.905.16-17.81.214-26.715.24-9,.027-18.01-.013-27.009-.04C4.57,45.649.19,41.777.124,37.251Q-.117,23.193.1,9.134C.164,4.5,4.6.256,9.269.2,23.528.069,37.787.055,52.045,0c3.111-.013,6.235.04,9.346.107,4.392.08,7.223,2.51,9.039,6.275.427.881.841,1.3,1.816,1.215a15.184,15.184,0,0,1,2.336.067,7.206,7.206,0,0,1,6.969,7.316q.1,8.231,0,16.462A6.428,6.428,0,0,1,75.583,38C74.195,38.172,72.779,38.146,71.177,38.226ZM35.664,40.482q12.917,0,25.834,0c3.3,0,4.82-1.535,4.82-4.766V10.669c0-3.351-1.989-5.447-5.38-5.447Q35.383,5.2,9.843,5.289A5.75,5.75,0,0,0,6.866,6.477c-1.442.988-1.749,2.577-1.749,4.259.013,8.4-.013,16.8-.027,25.193,0,2.937,1.6,4.553,4.579,4.553Q22.667,40.5,35.664,40.482ZM71.5,33.046c.908,0,1.629.013,2.35,0,2.323-.067,2.67-.4,2.7-2.764.027-3.3.027-6.609.027-9.906,0-1.656.04-3.311-.067-4.953-.067-1.108-.307-2.35-1.656-2.59a19.939,19.939,0,0,0-3.351-.04Z" transform="translate(-1199.6 1986.964) rotate(-90)" fill="#6b452c"/>
    <path id="Контур_284" data-name="Контур 284" d="M4.95,12.764c0,3.3.027,6.6-.013,9.906-.013,1.762-.854,2.657-2.363,2.7a2.327,2.327,0,0,1-2.537-2.55Q-.043,12.7.064,2.577A2.325,2.325,0,0,1,2.587,0C4.056.014,4.937.975,4.95,2.724,4.977,6.061,4.95,9.413,4.95,12.764Z" transform="translate(-1189.411 1971.657) rotate(-90)" fill="#ff5638"/>
  </g>
</svg>
