<svg xmlns="http://www.w3.org/2000/svg" xmlns:xlink="http://www.w3.org/1999/xlink" width="75.31" height="75" viewBox="0 0 75.31 75">
  <defs>
    <linearGradient id="linear-gradient" x1="0.689" y1="0.237" x2="0" y2="1.053" gradientUnits="objectBoundingBox">
      <stop offset="0" stop-color="#ffaf24"/>
      <stop offset="1" stop-color="#ed1a56"/>
    </linearGradient>
  </defs>
  <path id="Контур_308" data-name="Контур 308" d="M44.522,637.486a7.048,7.048,0,1,1-7.048-7.048A7.048,7.048,0,0,1,44.522,637.486ZM62.5,649.266a35.338,35.338,0,0,0,6.846-4.9A18.818,18.818,0,0,0,75.2,628.424a20.452,20.452,0,0,0-9.15-15.155c-8.982-5.556-21.886-2.523-28.538,4.347-7.114-6.488-19.921-9.5-28.25-4.347A20.467,20.467,0,0,0,.105,628.424a18.828,18.828,0,0,0,5.85,15.937,35.338,35.338,0,0,0,6.846,4.9,26.272,26.272,0,0,1,8.681,7.326A40.281,40.281,0,0,0,23.7,651.8a24.139,24.139,0,0,1,.965-2.271,94.9,94.9,0,0,1-9.3-4.58,30.755,30.755,0,0,1-5.954-4.237A13.9,13.9,0,0,1,5.1,628.933a15.348,15.348,0,0,1,6.8-11.4c7.121-4.409,18.887-.963,23.75,5.441l2.045,2.694c.077,0,.148.02.228.022l1.839-2.884c4.177-6.536,16.107-9.932,23.646-5.27a15.353,15.353,0,0,1,6.8,11.4,13.908,13.908,0,0,1-4.3,11.782,30.81,30.81,0,0,1-5.959,4.236,59.187,59.187,0,0,1-8.418,4.152,23.548,23.548,0,0,1,1.186,2.7,36.672,36.672,0,0,0,1.786,3.94,26.878,26.878,0,0,1,8-6.479Zm-8.36,15.678c-1.483-2.6-4.451-7.422-5.934-11.5s-2.97-5.936-8.163-6.31H36.361c-5.193.372-6.678,2.229-8.163,6.31s-4.451,8.9-5.934,11.5-6.676,5.19-4.823,7.417,3.34,2.224,5.939-.372a29.359,29.359,0,0,0,6.306-10.757s1.483,5.565.37,7.789-4.451,3.71-7.791,5.565-3.986,7.439,1.483,8.533q.4.076.83.133c1.069-.409,2.156-.841,3.068-1.248,4.25-1.873,8.617-.325,11.129.744,1.1.467,2.125.987,2.986,1.456a13.83,13.83,0,0,0,4.619,1.142,4.444,4.444,0,0,0,2.047-.432,5.542,5.542,0,0,0-.195-1.423,9.093,9.093,0,0,0-5.319-5.283c-4.717-1.946-8.34-2.318-10.817-1.954l-.556-.556c.195-.022,6.935-2.227,12.371-.281,4.487,1.6,7.707,4.52,8.134,7.818.2-.033.4-.071.618-.115,5.465-1.107,4.823-6.678,1.483-8.533s-6.676-3.34-7.791-5.565.372-7.789.372-7.789a29.322,29.322,0,0,0,6.3,10.757c2.6,2.6,4.082,2.6,5.936.372s-3.34-4.823-4.823-7.417ZM28.7,684.067a4.186,4.186,0,0,0,3.577,1.277,8.4,8.4,0,0,0,3.84-1.709c-2.3-.491-5.368-.54-7.419.432Z" transform="translate(0.004 -610.386)" fill-rule="evenodd" fill="url(#linear-gradient)"/>
</svg>
