<svg id="_1911755768816" xmlns="http://www.w3.org/2000/svg" width="72.091" height="70.176" viewBox="0 0 72.091 70.176">
  <path id="Контур_226" data-name="Контур 226" d="M1003.232,23257.412l-.007-.025a.369.369,0,0,1-.027-.145c0-.139,0-.273.006-.406,0-.24.009-.482.006-.721a6.857,6.857,0,0,0-.539-2.664,6.4,6.4,0,0,0-1.595-2.2,7.055,7.055,0,0,0-2.453-1.471,6.756,6.756,0,0,0-7.2,1.83,7.063,7.063,0,0,0-1.449,2.459c-.142.41-.235.668-.333.941h0l-.287.8-.292-.2-.4-.266c-.273-.18-.535-.355-.812-.547a7.156,7.156,0,0,0-1.668-.859,6.48,6.48,0,0,0-1.785-.361,6.793,6.793,0,0,0-6.67,9.549c.1.219.179.42.262.621l.212.508-.441.309c-.181.129-.351.248-.533.371a4.757,4.757,0,0,0-.92.826,4.515,4.515,0,0,0-.282,5.482,4.664,4.664,0,0,0,.829.918h0l1.172,1-.472.525c-.2.229-.4.447-.571.643a7.42,7.42,0,0,0-1.332,2.148,6.158,6.158,0,0,0-.422,2.475,6.922,6.922,0,0,0,.986,3.49,7.152,7.152,0,0,0,2.71,2.475,5.973,5.973,0,0,0,1.885.658,7.649,7.649,0,0,0,2.019.061.835.835,0,0,1,.554.105.957.957,0,0,1,.338.439c.136.3.274.6.426.891a5.446,5.446,0,0,0,.5.8,4.235,4.235,0,0,0,2.414,1.488,4.422,4.422,0,0,0,2.877-.277,4.78,4.78,0,0,0,1.546-1.137,4.631,4.631,0,0,0,.93-1.652,1.029,1.029,0,0,1,.392-.59,1,1,0,0,1,.707-.1,7.322,7.322,0,0,0,1.775.045,5.617,5.617,0,0,0,1.694-.449c.5-.223.975-.492,1.463-.768.243-.137.487-.275.688-.383l.161-.088.142.117.24.2c.185.156.383.322.585.477a4.688,4.688,0,0,0,1.812.867,4.368,4.368,0,0,0,1.957-.027,4.664,4.664,0,0,0,1.356-.545,4.447,4.447,0,0,0,1.824-2.1,4.514,4.514,0,0,0,.231-2.781,4.807,4.807,0,0,0-.559-1.375c-.133-.223-.283-.467-.434-.715l-.352-.578.595-.381c.243-.156.472-.307.731-.469l.082-.053a6.723,6.723,0,0,0,2.875-4.182,6.629,6.629,0,0,0-.837-4.994l-.051-.082a2.063,2.063,0,0,1-.357-.881,1.95,1.95,0,0,1,.146-.951q.082-.217.148-.445a5.786,5.786,0,0,0-3.488-6.922c-.144-.055-.294-.105-.45-.15a12.292,12.292,0,0,0-1.37-.279c-.221-.039-.445-.076-.679-.121l-.169-.031Zm-29.159,3.639a10.511,10.511,0,0,1,.706-4.447,10.151,10.151,0,0,1,7.013-5.893,10.578,10.578,0,0,1,4.288.023l-.013-.033c-.125-.311-.243-.6-.432-1.064l-.385-.945c-.416-1.025-.831-2.051-1.256-3.043a.925.925,0,0,0-.167-.25,1.126,1.126,0,0,0-.253-.209c-1.359-.8-2.7-1.572-4.049-2.348-.8-.459-1.588-.914-2.045-1.18a1.7,1.7,0,0,1-.8-.951,1.524,1.524,0,0,1,.134-1.2l.013-.023a1.449,1.449,0,0,1,.938-.711,1.7,1.7,0,0,1,1.218.189.217.217,0,0,1,.03.016c1.141.648,2.253,1.291,3.364,1.932l1.469.85.048.025c.026-.141.05-.275.069-.406q.2-1.465.4-2.928t.4-2.93a2.361,2.361,0,0,1,.191-.678,1.655,1.655,0,0,1,.628-.732,1.375,1.375,0,0,1,.913-.187,1.694,1.694,0,0,1,.481.143,1.522,1.522,0,0,1,.887,1.619c-.218,1.6-.429,3.121-.64,4.639l-.313,2.258c-.058.416-.117.836-.171,1.283a1.206,1.206,0,0,0-.011.17.336.336,0,0,0,.018.107c.614,1.523,1.288,3.18,1.973,4.859l.277.682a10.71,10.71,0,0,1,4.214-2.848,10.261,10.261,0,0,1,9.966,2.125,10.817,10.817,0,0,1,2.724,4.418l.717-.465c1.289-.832,2.579-1.668,3.889-2.537a.631.631,0,0,0,.162-.164.76.76,0,0,0,.111-.225c.359-1.283.726-2.641,1.092-4,.19-.705.381-1.41.515-1.9a1.739,1.739,0,0,1,.711-1.025,1.49,1.49,0,0,1,1.19-.186.115.115,0,0,0,.025.006,1.47,1.47,0,0,1,.941.734,1.741,1.741,0,0,1,.124,1.244.211.211,0,0,1-.009.035c-.3,1.152-.6,2.238-.891,3.322-.149.553-.3,1.1-.447,1.656-.014.053-.026.1-.036.145l3.5.656.758.143c.661.123,1.321.246,2,.383a1.694,1.694,0,0,1,.865.439,1.424,1.424,0,0,1,.416.836,1.672,1.672,0,0,1-.107.912,1.264,1.264,0,0,1-.6.625h0a2.064,2.064,0,0,1-.6.191,1.778,1.778,0,0,1-.61,0c-2.022-.355-4.064-.746-6.1-1.141l-.777-.148a.969.969,0,0,0-.332-.016.744.744,0,0,0-.292.119c-.992.66-2.022,1.328-3.053,2l-1.053.682a8.987,8.987,0,0,1,4.679,8.879l.329,0q.684,0,1.368,0l.8-.008c1.141-.012,2.282-.023,3.431-.066a2.666,2.666,0,0,0,.519-.072,2.514,2.514,0,0,0,.485-.172c.91-.439,1.814-.889,2.717-1.334,1.128-.559,2.256-1.119,3.344-1.637a1.984,1.984,0,0,1,.627-.17,2.288,2.288,0,0,1,.666.027,1.238,1.238,0,0,1,.732.441,1.7,1.7,0,0,1,.165,1.74,1.468,1.468,0,0,1-.653.621c-.881.447-1.769.885-2.658,1.324l-1.1.543-1.275.633c.064.049.127.1.19.16.828.766,1.338,1.238,1.841,1.707.722.672,1.444,1.342,2.187,2.027a1.764,1.764,0,0,1,.507.754,1.5,1.5,0,0,1-.009.922,1.544,1.544,0,0,1-.333.59,1.48,1.48,0,0,1-.722.438,1.54,1.54,0,0,1-.851-.02,1.7,1.7,0,0,1-.639-.369c-.822-.748-1.643-1.514-2.464-2.281l-1.073-1-.4-.371c-.454-.424-.909-.848-1.382-1.275a.719.719,0,0,0-.142-.1.219.219,0,0,0-.069-.023c-1.643-.01-3.286-.008-4.977-.008h-.8a11.058,11.058,0,0,1,.526,2.338,9.567,9.567,0,0,1-.085,2.7,9.817,9.817,0,0,1-.811,2.566,10.169,10.169,0,0,1-1.289,2.031l1.291.756.8.467c.815.477,1.631.951,2.525,1.488a.246.246,0,0,0,.113.047.265.265,0,0,0,.107-.055c1.633-1.162,3.2-2.268,4.771-3.375l.845-.6h0l.049-.033v0a3.727,3.727,0,0,1,.4-.258,1.565,1.565,0,0,1,1.125-.125,1.451,1.451,0,0,1,.893.668,1.622,1.622,0,0,1,.172,1.129,1.54,1.54,0,0,1-.6.957l-1.356.959c-1.472,1.041-2.945,2.084-4.364,3.074-.082.059-.131.1-.145.141a.36.36,0,0,0,.024.2v0c.327,1.1.637,2.16.936,3.2s.6,2.1.913,3.205c.009.033.019.07.029.111a1.7,1.7,0,0,1-.136,1.2,1.463,1.463,0,0,1-.908.709c-.022.006-.052.014-.089.021a1.5,1.5,0,0,1-1.153-.178,1.676,1.676,0,0,1-.7-.973c-.325-1.1-.621-2.135-.917-3.17l-.372-1.3c-.116-.406-.152-.529-.188-.65-.162-.557-.324-1.111-.467-1.654a.8.8,0,0,0-.131-.287.771.771,0,0,0-.244-.205c-.965-.551-1.95-1.129-2.935-1.707l-1.05-.613v.1c0,.4.009.8-.007,1.2-.007.172-.02.342-.038.506a7.656,7.656,0,0,1-7.745,6.633c-.173-.006-.343-.02-.509-.039a8.558,8.558,0,0,1-1.629-.346,7.537,7.537,0,0,1-1.524-.678h0a.551.551,0,0,0-.138-.061c-.012,0,0-.012-.006-.01h0c-.787.273-1.612.574-2.462.883l-.461.168.053.143c.085.23.178.484.345.947.121.334.249.68.378,1.025.3.8.6,1.6.849,2.422a10.114,10.114,0,0,0,1.49,2.725c.179.26.358.52.532.787.448.691.908,1.375,1.369,2.059.367.547.735,1.092,1.117,1.672a1.6,1.6,0,0,1,.279.766,1.32,1.32,0,0,1-.231.83,2.073,2.073,0,0,1-.579.619h0a1.174,1.174,0,0,1-.894.176,1.977,1.977,0,0,1-.574-.211h0a1.327,1.327,0,0,1-.429-.365c-.7-.971-1.374-1.971-2.05-2.967-.186-.275-.375-.555-.7-1.027l-.2.447c-.641,1.459-1.282,2.916-1.867,4.27a1.878,1.878,0,0,1-.373.574,1.5,1.5,0,0,1-.6.373,1.471,1.471,0,0,1-1.626-.416h0a1.524,1.524,0,0,1-.4-.762,1.492,1.492,0,0,1,.1-.85c.214-.523.43-1.01.646-1.5l.226-.508.448-1.021c.521-1.189,1.043-2.381,1.583-3.584a.73.73,0,0,0,.072-.287.817.817,0,0,0-.059-.3c-.361-.973-.753-2.062-1.146-3.152l-.441-1.223a7.974,7.974,0,0,1-2.475,1.637,7.377,7.377,0,0,1-3.217.531,7.519,7.519,0,0,1-3.18-.846,7.83,7.83,0,0,1-2.34-1.93c-.071.08-.137.158-.2.229l-.518.621c-.641.771-1.282,1.541-1.933,2.352a.472.472,0,0,0-.075.158.752.752,0,0,0-.032.229l.008.289c.055,1.992.11,3.986.207,5.99,0,.031,0,.064,0,.1a1.515,1.515,0,0,1-.439,1.008,1.468,1.468,0,0,1-.956.455c-.027,0-.057,0-.088,0a1.665,1.665,0,0,1-1.1-.4,1.525,1.525,0,0,1-.469-1.047c-.033-.436-.049-.891-.064-1.348-.006-.162-.011-.324-.019-.506-.011-.291-.025-.6-.039-.916-.038-.879-.076-1.76-.094-2.652a.461.461,0,0,0-.027-.207c-.015-.016-.075-.02-.192-.02-1.344.023-2.69.02-4.035.014l-.5,0a1.6,1.6,0,0,1-.978-.312,1.519,1.519,0,0,1-.549-.855,1.552,1.552,0,0,1,.076-.99,1.425,1.425,0,0,1,.665-.713,1.843,1.843,0,0,1,.434-.152,2.43,2.43,0,0,1,.489-.051c.94-.01,1.785-.012,2.56-.012h0q1.28,0,2.559.008a.505.505,0,0,0,.223-.037.46.46,0,0,0,.166-.139c.487-.607.959-1.176,1.431-1.744l.6-.725a9.95,9.95,0,0,1-5.659-4.248,10.255,10.255,0,0,1-1.189-7.811l-1.716.646c-1.491.564-2.982,1.127-4.322,1.623a.571.571,0,0,0-.216.129.6.6,0,0,0-.114.23c-.525,1.8-1.028,3.48-1.531,5.156l-.369,1.234a2.028,2.028,0,0,1-.617,1,1.4,1.4,0,0,1-1.025.328,1.694,1.694,0,0,1-.337-.061,1.513,1.513,0,0,1-.841-.6,1.567,1.567,0,0,1-.263-1.01,1.85,1.85,0,0,1,.065-.363c.209-.729.432-1.469.655-2.209q.146-.483.291-.969l.912-3.055-.687-.293c-.651-.279-1.3-.555-1.942-.83l-1.252-.529c-.75-.314-1.5-.629-2.26-.959a1.591,1.591,0,0,1-.775-.664h0a1.566,1.566,0,0,1-.175-1,1.512,1.512,0,0,1,.429-.871,1.42,1.42,0,0,1,.863-.41,1.9,1.9,0,0,1,.5.023,2.491,2.491,0,0,1,.518.15c.93.387,1.987.836,3.046,1.283,1.11.469,2.22.939,3.366,1.414h0a.818.818,0,0,0,.284.059.684.684,0,0,0,.26-.035c2.289-.848,4.519-1.691,6.749-2.537l1.308-.494a7.648,7.648,0,0,1,.374-8.6l-.1-.027c-.337-.082-.668-.164-1-.242l-.807-.184c-2.015-.461-4.03-.922-6.1-1.375a.692.692,0,0,0-.255,0,.849.849,0,0,0-.255.08c-1.126.613-2.257,1.244-3.388,1.873-.7.391-1.408.783-1.928,1.07a1.766,1.766,0,0,1-1.234.215,1.47,1.47,0,0,1-.961-.719c0-.01-.01-.02-.015-.027a1.484,1.484,0,0,1-.137-1.2,1.751,1.751,0,0,1,.825-.957.275.275,0,0,1,.034-.02q1.448-.809,2.9-1.611l1.5-.83.211-.121c-.377-.574-.287-.437-.339-.516-.378-.578-.753-1.15-1.077-1.639-.378-.57-.678-1.02-.977-1.469h0c-.31-.467-.619-.928-1.065-1.6a1.779,1.779,0,0,1-.309-1.238,1.486,1.486,0,0,1,.661-1.027h0l.011-.008a1.458,1.458,0,0,1,1.183-.215,1.772,1.772,0,0,1,1.013.754v0l.01.014,1.247,1.881c.9,1.365,1.809,2.732,2.674,4.021a.751.751,0,0,0,.159.168.391.391,0,0,0,.14.074c2.311.545,4.572,1.063,6.833,1.578l.965.221Z" transform="translate(-955.944 -23233.91)" fill="#6b452c"/>
  <path id="Контур_227" data-name="Контур 227" d="M1976.126,24294.635a3.249,3.249,0,0,0-3.258,3.273v.014a3.258,3.258,0,0,0,3.27,3.238h.014a3.256,3.256,0,0,0,3.237-3.258h0v0h0a3.248,3.248,0,0,0-3.259-3.264v0h0v0Zm12.485-3.3v-.012a.82.82,0,0,0-.838-.809h-.011a.808.808,0,0,0-.57.244.834.834,0,0,0-.229.588v.01a.819.819,0,0,0,.253.576.842.842,0,0,0,.59.242h.011a.8.8,0,0,0,.559-.254A.841.841,0,0,0,1988.612,24291.33Zm3.083-.027v.006a3.892,3.892,0,0,1-3.8,3.938l-.007,0a3.97,3.97,0,0,1-2.826-1.1,3.913,3.913,0,0,1-.089-5.551,3.969,3.969,0,0,1,2.774-1.193,3.818,3.818,0,0,1,2.768,1.107,4,4,0,0,1,1.181,2.787h0Zm-22.753-1.521a.807.807,0,0,0,.576-.229.822.822,0,0,0,.246-.576v-.008a.83.83,0,0,0-.817-.844h-.021a.809.809,0,0,0-.565.248.864.864,0,0,0-.254.588v.016a.781.781,0,0,0,.242.559A.866.866,0,0,0,1968.942,24289.781Zm-3.917-.828v0h0a3.9,3.9,0,0,1,3.927-3.908v0h0v0a3.919,3.919,0,0,1-.009,7.838v0h-.011v0a3.912,3.912,0,0,1-3.911-3.914h0Zm3.721,19.238v-.012h0a1.665,1.665,0,0,0-.488-1.176,1.648,1.648,0,0,0-1.167-.492h-.011a1.643,1.643,0,0,0-1.159.492,1.664,1.664,0,0,0-.5,1.16v.008a1.689,1.689,0,0,0,.484,1.186,1.649,1.649,0,0,0,1.16.5h.008v0h0v0a1.654,1.654,0,0,0,1.18-.484,1.679,1.679,0,0,0,.49-1.186h0Zm-1.634,4.758v0a4.691,4.691,0,0,1-3.346-1.352,4.74,4.74,0,0,1-1.4-3.346s0,0,0,0v-.014a4.805,4.805,0,0,1,1.34-3.387,4.644,4.644,0,0,1,3.313-1.418h.015a4.754,4.754,0,0,1,4.82,4.734v.027a4.664,4.664,0,0,1-1.369,3.33,4.788,4.788,0,0,1-3.341,1.424l-.028,0h0Zm18.324-3.914a2.061,2.061,0,0,0,1.457-.621,2.09,2.09,0,0,0,.613-1.469v-.035a2.131,2.131,0,0,0-.625-1.477,2.041,2.041,0,0,0-1.457-.605h-.033a2.134,2.134,0,0,0-2.087,2.131,2.071,2.071,0,0,0,.634,1.465,2.132,2.132,0,0,0,1.5.611Zm-.037,3.086h-.086a5.21,5.21,0,0,1-5.095-5.137v-.088a5.206,5.206,0,0,1,5.216-5.152h.041a5.1,5.1,0,0,1,3.662,1.6,5.217,5.217,0,0,1,1.46,3.572v.037a5.2,5.2,0,0,1-1.537,3.664A5.146,5.146,0,0,1,1985.4,24312.121Zm-9.246-7.879a6.388,6.388,0,0,1-4.476-1.809,6.2,6.2,0,0,1-1.9-4.389v-.006a6.352,6.352,0,0,1,6.405-6.5h.015a6.148,6.148,0,0,1,4.413,1.848,6.436,6.436,0,0,1,1.873,4.48v.025a6.292,6.292,0,0,1-1.833,4.479,6.364,6.364,0,0,1-4.478,1.875h-.018Z" transform="translate(-1940.928 -24262.652)" fill="#ff5638"/>
</svg>
