<svg id="_1949083237120" xmlns="http://www.w3.org/2000/svg" xmlns:xlink="http://www.w3.org/1999/xlink" width="68.936" height="69.556" viewBox="0 0 68.936 69.556">
  <defs>
    <linearGradient id="linear-gradient" x1="0.689" y1="0.237" x2="-0.007" y2="1.053" gradientUnits="objectBoundingBox">
      <stop offset="0" stop-color="#ffaf24"/>
      <stop offset="1" stop-color="#ed1a56"/>
    </linearGradient>
    <linearGradient id="linear-gradient-2" x1="3.234" y1="-2.665" x2="0.161" y2="0.893" xlink:href="#linear-gradient"/>
    <linearGradient id="linear-gradient-3" x1="2.814" y1="-2.18" x2="0.228" y2="0.816" xlink:href="#linear-gradient"/>
    <linearGradient id="linear-gradient-4" x1="2.888" y1="-2.265" x2="0.358" y2="0.664" xlink:href="#linear-gradient"/>
    <linearGradient id="linear-gradient-5" x1="1.781" y1="-0.984" x2="0.38" y2="0.638" xlink:href="#linear-gradient"/>
  </defs>
  <path id="Path_293" data-name="Path 293" d="M158.4,2373.846l-7.365,7.365-1.19,1.19-.92.92a1.283,1.283,0,0,1-1.77,0l-2.132-2.132a1.254,1.254,0,0,1,0-1.77l9.476-9.476a1.3,1.3,0,0,1,1.789,0l2.113,2.111a1.267,1.267,0,0,1,0,1.791Zm-19.917.8a7.737,7.737,0,0,0,4.19-2.122l3.294-3.293-1.746-1.746,6.282-6.28a1.27,1.27,0,0,1,1.786,0l2.111,2.111a1.267,1.267,0,0,1,0,1.791l-12.36,12.36a.519.519,0,0,1-.731,0l-2.825-2.828Zm-.719-26.168a1.273,1.273,0,0,1,1.8,0l2.108,2.111a1.27,1.27,0,0,1,0,1.793l-3.592,3.592-1.342,1.341h0l-1.342,1.342-3.9-3.9,6.272-6.275Zm9.116,5.409,2.113,2.11a1.274,1.274,0,0,1,0,1.794l-.954.949-.007.007-6.272,6.275-3.9-3.9,2.778-2.78,4.455-4.453a1.3,1.3,0,0,1,1.791,0Zm11.87,13.593a4.358,4.358,0,0,0-1.19-.823,4.752,4.752,0,0,0-.7-5.8l-2.111-2.113a4.71,4.71,0,0,0-1.976-1.159,4.729,4.729,0,0,0-1.323-4.053l-2.111-2.111a4.785,4.785,0,0,0-4.041-1.282,4.7,4.7,0,0,0-1.174-2.013l-2.11-2.113a4.758,4.758,0,0,0-6.72,0l-6.7,6.7a9.825,9.825,0,0,0-9.386.615l-4.536,2.906a11.1,11.1,0,0,0-4.526,6.658l-.031.2.5,8.806a8.887,8.887,0,0,1-2.591,6.8l-.939.942,2.463,2.461.939-.939a12.383,12.383,0,0,0,3.606-9.459l-.476-8.39a7.947,7.947,0,0,1,3.038-4.209l4.432-2.835a6.319,6.319,0,0,1,7.832.85l12.117,12.116-.83.831a4.567,4.567,0,0,1-6.31,0l-1.107-1.107-.464-.464-5.335-5.333-2.461,2.463,5.631,5.634,8.686,8.688a3.94,3.94,0,0,0,2.4,1.128,4.707,4.707,0,0,0,1.311,2.584l2.132,2.134h0a4.744,4.744,0,0,0,1.02.752l-5.806,5.806a6.786,6.786,0,0,1-4.7,2l-.549.009a7.8,7.8,0,0,0-5.418,2.3l2.463,2.461a4.353,4.353,0,0,1,3.017-1.282l.549-.01a10.262,10.262,0,0,0,7.108-3.017l11.13-11.13,7.368-7.365a4.761,4.761,0,0,0,0-6.719l-2.113-2.111Z" transform="translate(-93.32 -2344.626)" fill-rule="evenodd" fill="url(#linear-gradient)"/>
  <path id="Path_294" data-name="Path 294" d="M58.723,2517.214l10.141-10.138L66.4,2504.61,56.26,2514.753Z" transform="translate(-54.516 -2466.757)" fill-rule="evenodd" fill="url(#linear-gradient-2)"/>
  <path id="Path_295" data-name="Path 295" d="M151.955,2577.793l-2.465-2.463-12.509,12.507,2.463,2.463Z" transform="translate(-116.138 -2520.745)" fill-rule="evenodd" fill="url(#linear-gradient-3)"/>
  <path id="Path_296" data-name="Path 296" d="M98.65,2571.265l2.461,2.465,12.85-12.845-2.463-2.465Z" transform="translate(-86.877 -2507.836)" fill-rule="evenodd" fill="url(#linear-gradient-4)"/>
  <path id="Path_297" data-name="Path 297" d="M74.072,2502.23,48.89,2527.414l2.463,2.463L76.537,2504.7Z" transform="translate(-48.89 -2464.94)" fill-rule="evenodd" fill="url(#linear-gradient-5)"/>
</svg>
