<svg xmlns="http://www.w3.org/2000/svg" xmlns:xlink="http://www.w3.org/1999/xlink" width="63.904" height="75" viewBox="0 0 63.904 75">
  <defs>
    <linearGradient id="linear-gradient" x1="-0.007" y1="0.231" x2="0.964" y2="1" gradientUnits="objectBoundingBox">
      <stop offset="0" stop-color="#ffaf24"/>
      <stop offset="1" stop-color="#ed1a56"/>
    </linearGradient>
  </defs>
  <path id="Контур_298" data-name="Контур 298" d="M3867.469,687.175a21,21,0,0,0,8.371,7.712l1.222-2.306a18.769,18.769,0,0,1-7.294-6.646l-2.3,1.24Zm14.256,14.389-.38-.334-.485-.143c-9.858-2.891-16.407-12.953-16.468-13.052l-.988-1.546-1.722.63c-8.1,2.962-12.052-.571-12.192-.7l-.962-.941-1.291.383c-5.1,1.521-10.514-3.283-10.565-3.329l-.42-.383-.551-.14a34.25,34.25,0,0,1-10.613-4.584c-.242-12.417,7.776-26.64,12.682-33.23,4.95-6.651,11.021-6.835,11.669-6.835h0l11.718,1.11.1,4.2-4.919,1.311-1.582,3.516-4.181.393a26.744,26.744,0,0,0-4.3-.793c-.09-.01-.179-.015-.268-.018a9.827,9.827,0,0,0-7.345,1.082l1.811,2.714a4.73,4.73,0,0,1,1.737-.689,13.02,13.02,0,0,0-.5,1.324,42.337,42.337,0,0,0-1.6,9.978c-.3,5.656.454,7.266,1.38,8a30.963,30.963,0,0,0-2.291,2.949l2.714,1.809a41.18,41.18,0,0,1,4.442-5.217l.286-.2a12.277,12.277,0,0,1,7.863-2.6l.155,0a17.463,17.463,0,0,1,8.031,2.209l1.972,1.212,1.186-1.99c2.381-4,5.146-6.383,8.212-7.077a9.968,9.968,0,0,1,6.871,1.11v-5a14.062,14.062,0,0,0-7.794-.589c-3.839.842-7.22,3.335-10.062,7.422a21.433,21.433,0,0,0-8.419-1.87c-.069,0-.141,0-.209,0a16.57,16.57,0,0,0-9.855,3.023c-.143-3.669.748-10.861,1.905-12.955a17.251,17.251,0,0,1,2.942.587h0l.525.219,7.871-.74,1.783-3.959,6.294-1.679-.275-11.858-15.851-1.5-.13-.01c-.357-.008-8.93-.227-15.55,8.672-6.725,9.036-14.3,24.224-13.534,37.284l.056.987.758.633c.186.156,4.559,3.753,12.667,5.929,1.61,1.316,7.169,5.378,13.313,4.225,2.008,1.347,6.784,3.615,14.205,1.441,2.342,3.153,8.529,10.457,17.348,13.307a6.333,6.333,0,0,1,.9,2.521h4.6a9.653,9.653,0,0,0-2.7-6.228Zm-1.791-15.866c-12.374-5.735-12.307-15.343-12.3-15.749l-1.3-.033-1.306-.041c-.015.474-.191,11.705,13.807,18.193l1.1-2.367Zm-23.3-9.307h4.569l-8.013-6.97-8.014,6.97h4.569v4.222h6.885v-4.222Zm-6.886,7.5h6.886v-1.63h-6.886Z" transform="translate(-3820.518 -632.784)" fill-rule="evenodd" fill="url(#linear-gradient)"/>
</svg>
