<svg id="_1911755769968" xmlns="http://www.w3.org/2000/svg" width="74.188" height="64.922" viewBox="0 0 74.188 64.922">
  <path id="Контур_233" data-name="Контур 233" d="M10022.419,10402.949c-.377,0-.553,0-.729,0a18.8,18.8,0,0,1-6.167-.975,1.8,1.8,0,1,1,1.181-3.393,14.684,14.684,0,1,0-8.544-7.526,1.828,1.828,0,0,1-.737,2.552,1.793,1.793,0,0,1-2.489-1.014,24.916,24.916,0,0,1-1.042-2.722c-.269-.852-.427-1.738-.641-2.639-.188.014-.368.01-.542.04a15.358,15.358,0,0,0-12.5,10.439,15.012,15.012,0,0,0-.808,4.886,1.736,1.736,0,0,1-1.9,1.772,1.753,1.753,0,0,1-1.672-1.894,16.883,16.883,0,0,1,.807-5.27.877.877,0,0,0-.388-1.155,23.49,23.49,0,0,1-5.009-4.9,5.514,5.514,0,0,1-1.168-3.684c.033-.466-.008-.937.008-1.406.011-.3-.11-.418-.412-.41-.5.012-1.011.017-1.515-.011a1.752,1.752,0,0,1-1.662-1.507,1.781,1.781,0,0,1,1.885-2.047c3.878,0,7.756-.012,11.634.007a2.867,2.867,0,0,0,1.921-.589,22.4,22.4,0,0,0,1.949-1.854,3.6,3.6,0,0,0,.665-2.913.668.668,0,0,0-.17-.323c-1.322-1.711-2.659-3.412-3.973-5.131a4.279,4.279,0,0,0-4.859-1.543q-6.674,2.2-13.343,4.411a4.074,4.074,0,0,0-3,4.138c0,7.053-.032,14.105.026,21.157a17.012,17.012,0,0,0,.6,4.152,29.387,29.387,0,0,0,4.358,8.773,85.952,85.952,0,0,0,8.914,10.789,1.757,1.757,0,0,1,.543,1.274,2.987,2.987,0,0,0,2.928,2.8q3.491,0,6.98,0a26.315,26.315,0,0,0,8.609-1.387,29.688,29.688,0,0,0,18.788-18.157C10021.538,10406.2,10021.911,10404.613,10022.419,10402.949Zm-38.722-17.257c0,.884-.019,1.712.014,2.538a1.292,1.292,0,0,0,.277.633,23.041,23.041,0,0,0,4.333,4.269c.116-.164.211-.287.295-.418a18.876,18.876,0,0,1,13.96-9.012c.369-.05.6-.115.643-.588a18.316,18.316,0,1,1,23.451,19.047.907.907,0,0,0-.73.826c-2.559,12.574-9.747,21.294-21.738,25.953a29.75,29.75,0,0,1-10.646,1.893c-2.291.017-4.584-.063-6.871.018a6.631,6.631,0,0,1-6.506-5.155,2.182,2.182,0,0,0-.5-.916,81.777,81.777,0,0,1-9.247-11.559,30.007,30.007,0,0,1-4.374-9.886,18.284,18.284,0,0,1-.4-3.643c-.036-7.179-.019-14.358-.019-21.537a7.6,7.6,0,0,1,5.273-7.342q6.719-2.238,13.449-4.442a7.8,7.8,0,0,1,9.012,2.9q1.78,2.385,3.641,4.707a4.663,4.663,0,0,1,1.123,3.117,8.743,8.743,0,0,1-5.973,8.256,6.581,6.581,0,0,1-1.908.295c-2.038.037-4.077.013-6.114.016-.124,0-.247.019-.447.033Z" transform="translate(-9965.638 -10365.933)" fill="#6b452c"/>
  <path id="Контур_234" data-name="Контур 234" d="M11723.447,12368.617c-1.16-.01-1.866-.449-2.1-1.328a1.753,1.753,0,0,1,1.729-2.25,8.369,8.369,0,0,0,8.3-8.328,1.707,1.707,0,0,1,1.225-1.67,1.683,1.683,0,0,1,1.934.592,2.354,2.354,0,0,1,.395,1.2,11.852,11.852,0,0,1-10.239,11.656c-.41.049-.823.086-1.235.131Z" transform="translate(-11686.685 -12315.759)" fill="#ff5638"/>
</svg>
