<svg xmlns="http://www.w3.org/2000/svg" width="80.178" height="51.74" viewBox="0 0 80.178 51.74">
  <g id="Сгруппировать_25" data-name="Сгруппировать 25" transform="translate(1349.745 -2396.5)">
    <g id="_1911755778272" transform="translate(-1349.745 2396.5)">
      <path id="Контур_251" data-name="Контур 251" d="M2432.31,760.32c5.22,0,10.441-.039,15.66.014,3.175.033,5.5,1.879,6.03,4.6a5.593,5.593,0,0,1-5.289,6.94c-7.614.189-15.235.088-22.853.027a.766.766,0,0,1-.282-.062,1.038,1.038,0,0,1-.143-1.817,1.412,1.412,0,0,1,.741-.283c6.913-.081,13.826-.046,20.74-.055a9.7,9.7,0,0,0,2.314-.139,3.508,3.508,0,0,0,.063-6.786,10.206,10.206,0,0,0-2.521-.179q-14.285-.04-28.571-.054a4.818,4.818,0,0,1-1.472-.028c-.143-.049-.284-.1-.423-.163a1.038,1.038,0,0,1,.167-1.967,1.207,1.207,0,0,1,.178-.019c3.735-.109,7.476-.047,11.215-.045q2.221,0,4.444,0v.017Z" transform="translate(-2377.74 -748.345)" fill="#6b452c"/>
      <path id="Контур_252" data-name="Контур 252" d="M2352.728,678.154c2.616,0,2.986,0,3.354,0,3.675-.008,7.35-.016,11.022.021a7.9,7.9,0,0,1,4.759,1.536,6.694,6.694,0,0,1,2.53,4.108,7.948,7.948,0,0,1,.14,1.31,7.185,7.185,0,0,1-1.412,4.523,6.591,6.591,0,0,1-4.052,2.513,7.3,7.3,0,0,1-1.2.126c-6.7.166-13.414.108-20.124.05l-2.769-.023a1.927,1.927,0,0,1-.409-.047,2.17,2.17,0,0,1-.348-.105,2.251,2.251,0,0,1-1.035-.845,2.313,2.313,0,0,1-.373-1.073,2.379,2.379,0,0,1,.161-1.106,2.336,2.336,0,0,1,.876-1.069,3.369,3.369,0,0,1,.6-.323h.005a2.283,2.283,0,0,1,.837-.172c5.03-.059,10.067-.057,15.1-.054q2.825,0,5.651,0l.407,0a6.691,6.691,0,0,0,1.594-.105,2.223,2.223,0,0,0,1.252-.729,2.627,2.627,0,0,0,.031-2.813,2.181,2.181,0,0,0-1.229-.741,7.782,7.782,0,0,0-1.873-.139h-.324q-11.189-.031-22.379-.044l-6.191-.01c-.06,0-.217.012-.374.023a3.556,3.556,0,0,1-1.513-.117c-.062-.021-.151-.054-.263-.1-.067-.026-.151-.06-.246-.1h0a2.286,2.286,0,0,1-1.2-1.159,2.406,2.406,0,0,1-.206-1.241,2.332,2.332,0,0,1,.471-1.2,2.206,2.206,0,0,1,1.379-.833v0c.073-.013.135-.023.184-.028s.11-.009.18-.011h.005c2.766-.081,5.548-.068,8.328-.055.976,0,1.952.009,2.922.01h5.739v.012Z" transform="translate(-2296.865 -667.474)" fill="#6b452c"/>
      <path id="Контур_253" data-name="Контур 253" d="M138.243,88.471a9.912,9.912,0,0,1-.689,2.053.66.66,0,0,1-.226.234,1.1,1.1,0,0,1-1.611-.532.994.994,0,0,1-.087-.535c.749-4.252-.962-5.936-5.212-5.01-2.065.45-4.1,1.107-6.189,1.358-5.354.641-9.639,3.289-13.625,6.692-2.838,2.423-5.808,4.692-8.738,7.005-3,2.371-6.57,2.266-10.1,2.144a.665.665,0,0,1-.333-.12,1.1,1.1,0,0,1-.056-1.748c.119-.1.239-.2.361-.3.088-.07.277-.039.415-.02,5.088.712,8.982-1.633,12.526-4.884.311-.286.649-.543.974-.812,12.824-10.632,9.641-7.941,25.563-11.725,3.731-.887,7.041,1.946,7.028,6.2Z" transform="translate(-89.542 -80.821)" fill="#6b452c"/>
      <path id="Контур_254" data-name="Контур 254" d="M58.614,8.057l-.067.262a8.807,8.807,0,0,1-.712,2.013,1.828,1.828,0,0,1-.317.43,2.134,2.134,0,0,1-.334.274,2.3,2.3,0,0,1-.426.226,2.347,2.347,0,0,1-1.612.048,2.434,2.434,0,0,1-1.255-.956,2.408,2.408,0,0,1-.234-.441,2.667,2.667,0,0,1-.153-.527,2.016,2.016,0,0,1-.009-.71q.444-2.519-.352-3.294t-3.313-.23c-.7.152-1.374.323-2.05.494a33.652,33.652,0,0,1-4.261.884A19.819,19.819,0,0,0,36.639,8.7a32.784,32.784,0,0,0-6.057,4.22c-2.194,1.873-4.5,3.677-6.8,5.481-.755.591-1.516,1.188-1.981,1.555a11.214,11.214,0,0,1-5.465,2.274,30.092,30.092,0,0,1-5.476.147h-.005a1.809,1.809,0,0,1-.572-.116,2.137,2.137,0,0,1-.418-.212,2.3,2.3,0,0,1-.5-.441,2.326,2.326,0,0,1-.544-1.425,2.45,2.45,0,0,1,.861-1.95l.195-.16.2-.159,0,0a1.6,1.6,0,0,1,1.372-.291l.028,0a11.068,11.068,0,0,0,6.14-.86,20.005,20.005,0,0,0,5.33-3.7c.237-.217.484-.417.731-.617.049-.039.1-.078.293-.241C34.43,3.533,34.485,3.522,42.467,1.885c1.89-.387,4.259-.873,7.587-1.664A7.159,7.159,0,0,1,51.732.028,6.642,6.642,0,0,1,56.017,1.59,7.444,7.444,0,0,1,58.44,5.607a8.847,8.847,0,0,1,.23,2.071v.2l-.055.178Z" transform="translate(-8.68 -0.028)" fill="#6b452c"/>
      <path id="Контур_255" data-name="Контур 255" d="M113.71,2779.53c-3.6,0-7.2-.1-10.8.03a14.263,14.263,0,0,1-8.43-2.314,13.926,13.926,0,0,0-10.075-2.194,3.184,3.184,0,0,1-1.465.028,1.458,1.458,0,0,1-.345-.182,1.1,1.1,0,0,1-.157-1.642.747.747,0,0,1,.467-.289c3.418-.142,7-1.031,10.115,1.053,4.531,3.027,9.5,3.618,14.854,3.353,5.627-.279,11.205.192,16.833.465,3.922.191,4.918.191,5.12-3.071a.822.822,0,0,1,.018-.124,1.1,1.1,0,0,1,1.948-.336.987.987,0,0,1,.193.362c.785,2.985-1.749,4.8-5.155,4.851-4.374.071-8.75.017-13.125.017v-.007Z" transform="translate(-80.856 -2729.12)" fill="#6b452c"/>
      <path id="Контур_256" data-name="Контур 256" d="M31.582,2699.516,29.6,2699.5c-2.487-.021-4.975-.041-7.47.047a15.565,15.565,0,0,1-9.173-2.516,13.483,13.483,0,0,0-4.418-1.894,12.707,12.707,0,0,0-4.757-.114l-.1.017a3.9,3.9,0,0,1-2-.044h0a2.581,2.581,0,0,1-.355-.158,2.929,2.929,0,0,1-.294-.179,2.371,2.371,0,0,1-1-1.72,2.409,2.409,0,0,1,.415-1.591,2.379,2.379,0,0,1,.211-.266,2.551,2.551,0,0,1,.474-.411,1.732,1.732,0,0,1,.893-.293c.574-.024,1.291-.084,2.009-.145,2.987-.252,6-.506,8.875,1.415a18.13,18.13,0,0,0,6.647,2.713,30.371,30.371,0,0,0,7.428.421,126.66,126.66,0,0,1,13.418.276c1.213.068,2.429.136,3.536.19a9.412,9.412,0,0,0,3.318-.1c.265-.133.384-.645.452-1.753,0-.069.01-.127.017-.173s.018-.11.026-.147a2.252,2.252,0,0,1,.8-1.3,2.331,2.331,0,0,1,.977-.455,2.478,2.478,0,0,1,1.034,0h0a2.48,2.48,0,0,1,1.409.881,2.512,2.512,0,0,1,.239.362l0,.005a2.114,2.114,0,0,1,.186.47,5.463,5.463,0,0,1,.184,1.3,4.4,4.4,0,0,1-1.245,3.193,6.315,6.315,0,0,1-3,1.667,9.809,9.809,0,0,1-2.325.3c-3.062.049-6.13.038-9.2.027-.629,0-1.259,0-3.948,0H31.582v-.015Z" transform="translate(-0.022 -2647.819)" fill="#6b452c"/>
      <path id="Контур_257" data-name="Контур 257" d="M4146.085,1681.524c-1.572,2.494-2.941,4.364-3.984,6.4a4.585,4.585,0,0,0,1.192,6.046,4.7,4.7,0,0,0,5.505.084,4.564,4.564,0,0,0,1.441-5.994,73.944,73.944,0,0,0-4.155-6.538Zm6.925,8.255c-.155,3.4-1.446,5.539-4.058,6.735a6.464,6.464,0,0,1-7.3-1.032c-2.2-1.87-3.186-4.5-2.041-7.036a75.945,75.945,0,0,1,5.753-9.532,1.675,1.675,0,0,1,1.55.061c1.8,2.51,3.577,5.047,5.16,7.7a11.444,11.444,0,0,1,.939,3.107Z" transform="translate(-4074.131 -1652.392)" fill="#ff5638"/>
      <path id="Контур_258" data-name="Контур 258" d="M4065.1,1603.062l-.391.6a44.138,44.138,0,0,0-2.46,4.036,3.836,3.836,0,0,0-.434,2.493,3.228,3.228,0,0,0,1.262,1.94,3.314,3.314,0,0,0,1.96.67,3.418,3.418,0,0,0,2.018-.616,3.334,3.334,0,0,0,1.369-1.933,3.569,3.569,0,0,0-.341-2.433,35.592,35.592,0,0,0-2.54-4.1l-.442-.65Zm8.2,5.956a10.027,10.027,0,0,1-1.29,4.806,7.693,7.693,0,0,1-3.522,3.047,8.021,8.021,0,0,1-4.513.736,8.162,8.162,0,0,1-4.161-1.955,8.411,8.411,0,0,1-2.714-4.008,6.456,6.456,0,0,1,.33-4.544,55.213,55.213,0,0,1,4.5-7.654c.446-.673.892-1.347,1.342-2.045l0,0a1.446,1.446,0,0,1,.372-.387v0a2.608,2.608,0,0,1,1.472-.356,2.924,2.924,0,0,1,1.413.358v.005a1.545,1.545,0,0,1,.422.395h0c.846,1.179,1.717,2.41,2.677,3.826.888,1.31,1.743,2.629,2.539,3.961a8.582,8.582,0,0,1,.934,2.792c.045.223.085.423.143.624l.055.194-.01.216Z" transform="translate(-3993.13 -1571.575)" fill="#ff5638"/>
      <path id="Контур_259" data-name="Контур 259" d="M2969.7,1655.246c-.028,0-.053,0-.081,0a3.172,3.172,0,0,1-1.266-.166,1.552,1.552,0,0,1-.721-1.1c-.028-.266.415-.742.738-.847a6.253,6.253,0,0,1,1.667-.144c2.837-.116,3.882-1.152,4.178-3.925l0-.017a1.1,1.1,0,0,1,2.049-.347,1,1,0,0,1,.121.339C2976.881,1652.389,2973.931,1655.211,2969.7,1655.246Z" transform="translate(-2921.032 -1622.258)" fill="#6b452c"/>
      <path id="Контур_260" data-name="Контур 260" d="M2888.841,1575.714c-.073,0-.1,0-.125,0h-.023c-.038,0-.072,0-.11,0a3.72,3.72,0,0,1-1.642-.281,2.538,2.538,0,0,1-1-.91h0a2.9,2.9,0,0,1-.457-1.23,1.986,1.986,0,0,1,.533-1.45,2.67,2.67,0,0,1,1.089-.757,5.2,5.2,0,0,1,1.638-.2c.113,0,.227,0,.378-.008a3.391,3.391,0,0,0,2.2-.612,3.463,3.463,0,0,0,.742-2.16l0-.037a2.266,2.266,0,0,1,.705-1.4,2.4,2.4,0,0,1,1.209-.6,2.455,2.455,0,0,1,1.319.12l0,0a2.355,2.355,0,0,1,1.225,1.067,2.465,2.465,0,0,1,.163.354,2.163,2.163,0,0,1,.109.425,6.174,6.174,0,0,1-1.822,5.337,8.353,8.353,0,0,1-4.7,2.241,10.441,10.441,0,0,1-1.433.106Zm-.895-2.179,0-.009-.045.013C2887.859,1573.552,2887.916,1573.538,2887.947,1573.535Z" transform="translate(-2840.161 -1541.436)" fill="#6b452c"/>
      <path id="Контур_261" data-name="Контур 261" d="M2951.831,2192.417l-.012-.01a1.012,1.012,0,0,1,.188-1.674,2.071,2.071,0,0,1,.72-.231c3.079-.308,4.261-1.689,3.982-4.7a1.24,1.24,0,0,1,.053-.456,1.013,1.013,0,0,1,1.635-.467,1.254,1.254,0,0,1,.414.561c1.088,3.641-1.687,7.052-6.305,7.215A.994.994,0,0,1,2951.831,2192.417Z" transform="translate(-2905.113 -2150.329)" fill="#6b452c"/>
      <path id="Контур_262" data-name="Контур 262" d="M2870.01,2112.439l-.007-.006a2.278,2.278,0,0,1-.57-.722,2.308,2.308,0,0,1,.294-2.527,2.276,2.276,0,0,1,.716-.563,3.909,3.909,0,0,1,.534-.222,2.963,2.963,0,0,1,.641-.141,3.537,3.537,0,0,0,2.391-.885,3.244,3.244,0,0,0,.434-2.411,2.343,2.343,0,0,1,0-.5,2.844,2.844,0,0,1,.093-.426h0a2.28,2.28,0,0,1,1.563-1.56,2.29,2.29,0,0,1,2.16.47,3.119,3.119,0,0,1,.439.458,2.189,2.189,0,0,1,.369.71,6.831,6.831,0,0,1,.283,1.721,6.346,6.346,0,0,1-1.39,4.2,7.716,7.716,0,0,1-3.89,2.558,9.966,9.966,0,0,1-2.507.4,2.236,2.236,0,0,1-.825-.127h0a2.317,2.317,0,0,1-.717-.417l-.005,0Zm7-7.709v0Zm0,.011h0Zm0,0v0Z" transform="translate(-2824.131 -2069.37)" fill="#6b452c"/>
      <path id="Контур_263" data-name="Контур 263" d="M4386.167,2394.1a.919.919,0,0,1,.044,1.119.868.868,0,0,1-.924.5,2.2,2.2,0,0,1-2-1.9,1,1,0,0,1,1.043-1.14C4385.054,2392.694,4385.568,2393.361,4386.167,2394.1Z" transform="translate(-4314.46 -2355.117)" fill="#ff5638"/>
      <path id="Контур_264" data-name="Контур 264" d="M4306.037,2312.492a2.092,2.092,0,0,1,.5,1.347,2.468,2.468,0,0,1-.314,1.177l-.005.011,0,0a2.005,2.005,0,0,1-2.07,1.182,3.421,3.421,0,0,1-2.243-.976,3.146,3.146,0,0,1-1.043-2.209,2.28,2.28,0,0,1,1.047-2.07,2.455,2.455,0,0,1,1.294-.359c1.316.009,2,.858,2.779,1.825Z" transform="translate(-4233.325 -2274.314)" fill="#ff5638"/>
    </g>
  </g>
</svg>
