<svg xmlns="http://www.w3.org/2000/svg" xmlns:xlink="http://www.w3.org/1999/xlink" width="58.396" height="89.875" viewBox="0 0 58.396 89.875">
  <defs>
    <linearGradient id="linear-gradient" x1="0.689" y1="0.237" x2="0" y2="1.053" gradientUnits="objectBoundingBox">
      <stop offset="0" stop-color="#ffaf24"/>
      <stop offset="1" stop-color="#ed1a56"/>
    </linearGradient>
  </defs>
  <path id="Контур_304" data-name="Контур 304" d="M3957.208,2199.394a8.537,8.537,0,1,0-8.537-8.537A8.537,8.537,0,0,0,3957.208,2199.394Zm.912,11.905c.4-1.438.7,0,.7,0,1.694,5.736,7.643,6.063,7.643,6.063C3958.163,2217.6,3958.12,2211.3,3958.12,2211.3Zm-10.164,6.063s5.949-.327,7.643-6.063c0,0,.3-1.438.7,0C3956.3,2211.3,3956.252,2217.6,3947.956,2217.361Zm38.443-11.724a18.477,18.477,0,0,0-5.953-11.375l-.744-2.444a5.308,5.308,0,0,0-1.235-1.913h-5.887c-.532,0-1.17,1.383-1.17,1.383l.106,3.615c.957,1.489,4.784,1.276,4.784,1.276.745,0,1.275-1.383,1.275-1.383a21.284,21.284,0,0,1,.742,8.61l-.742.319c-.213-2.019-2.976-2.019-2.976-2.019a4.628,4.628,0,0,0-3.319,1.81l-4.881-1.1-.2.108v-.077a10.018,10.018,0,0,0-1.448-.2v-.027h-1.008l-.024.049h-13.008l-.024-.049h-.477c-.323,0-.64.018-.955.049h0a9.782,9.782,0,0,0-1.026.152v.1l-.2-.108-4.881,1.1a4.628,4.628,0,0,0-3.319-1.81s-2.764,0-2.976,2.019l-.743-.319a21.32,21.32,0,0,1,.743-8.61s.532,1.383,1.274,1.383c0,0,3.827.213,4.784-1.276l.106-3.615s-.638-1.383-1.17-1.383h-5.887a5.329,5.329,0,0,0-1.235,1.913l-.745,2.445a18.477,18.477,0,0,0-5.953,11.375,4.163,4.163,0,0,0,1.6,3.3,6.566,6.566,0,0,0,2.976,1.806,25.9,25.9,0,0,0,12.549,2.015l3.084,12.829v16.264l-.315,26.9a3.445,3.445,0,0,0,6.89,0V2239.94h4.5v28.809a3.445,3.445,0,0,0,6.89,0v-45.158l2.616-10.881a26.058,26.058,0,0,0,13.018-1.974,6.584,6.584,0,0,0,2.976-1.806,4.162,4.162,0,0,0,1.6-3.3Z" transform="translate(-3928.01 -2182.32)" fill-rule="evenodd" fill="url(#linear-gradient)"/>
</svg>
