<svg id="_1911755781584" xmlns="http://www.w3.org/2000/svg" width="88.777" height="70.175" viewBox="0 0 88.777 70.175">
  <path id="Контур_268" data-name="Контур 268" d="M10505.335,5033.1c-1.746-1.749-4.561-2.325-8.068-1.879a32.159,32.159,0,0,0-8.621,2.57c3.708.223,6.309.758,8.2,2.076,2.882,2.006,3.847,5.472,4.1,11.858.061,1.426.084,3.037.089,4.84,0,1.292-.006,2.676-.02,4.161q.491-.809.945-1.608a56.137,56.137,0,0,0,2.851-5.715,27.9,27.9,0,0,0,2.547-10.208,8.189,8.189,0,0,0-2.026-6.09v-.005Zm-8.429-4.727c4.4-.559,8.039.274,10.464,2.7l0,0c1.983,1.984,2.9,4.787,2.859,8.161a30.684,30.684,0,0,1-2.771,11.3,58.818,58.818,0,0,1-3,6.008c-1.158,2.036-2.473,4.108-3.935,6.19l-3.259,4.642.652-5.632q.1-.825.146-1.629c.036-.591.059-1.159.064-1.7.021-2.141.039-4.083.035-5.841,0-1.73-.027-3.3-.088-4.728-.216-5.395-.9-8.229-2.875-9.606-2.11-1.469-5.948-1.674-12.327-1.727l-5.4-.044,4.7-2.646C10487.545,5030.8,10492.611,5028.916,10496.906,5028.37Zm-40.326,50.886a28.75,28.75,0,0,1-4.215-6.527,32.529,32.529,0,0,1-1.62-4.207q-.664,1.112-1.264,2.209c-.888,1.623-1.665,3.22-2.325,4.773a33.748,33.748,0,0,0-2.221,7.064,17.027,17.027,0,0,0-.289,4.29,5.135,5.135,0,0,1,4.4,6.432,14.446,14.446,0,0,0,7.871,0,44.044,44.044,0,0,0,11.508-4.733,56.916,56.916,0,0,1-5.909-3.82A36.145,36.145,0,0,1,10456.58,5079.256Zm-1.615-7.743a25.831,25.831,0,0,0,3.8,5.875,33.319,33.319,0,0,0,5.473,5.04,58.588,58.588,0,0,0,7.769,4.809l2.235,1.176-2.157,1.323a50.067,50.067,0,0,1-14.537,6.356c-4.442,1.009-8.278.786-11.1-.846l-1.327-.767.854-1.276a2.175,2.175,0,0,0,.271-.581,2.284,2.284,0,0,0,.095-.656,2.257,2.257,0,0,0-2.257-2.257c-.1,0-.168,0-.208.006-.065.007-.139.018-.219.033l-1.412.269-.266-1.422a18.15,18.15,0,0,1,.133-6.533,36.6,36.6,0,0,1,2.4-7.683c.688-1.618,1.506-3.3,2.448-5.021.925-1.693,1.972-3.427,3.131-5.184l1.867-2.83.733,3.308A32.63,32.63,0,0,0,10454.965,5071.513Z" transform="translate(-10431.6 -5026.929)" fill="#6b452c"/>
  <path id="Контур_269" data-name="Контур 269" d="M10504.795,5075.359a55.445,55.445,0,0,0-2.892-5.788q-.91-1.593-1.964-3.231a32.033,32.033,0,0,1-1.879,5.309,34.4,34.4,0,0,1-5,7.864,41.133,41.133,0,0,1-5.467,5.372,46.451,46.451,0,0,1-4.53,3.265,42.166,42.166,0,0,0,13.218,5.241c3.954.686,7.124.172,9.031-1.734a8.181,8.181,0,0,0,2.026-6.088A27.923,27.923,0,0,0,10504.795,5075.359Zm-.393-7.206a58.365,58.365,0,0,1,3.038,6.081,30.71,30.71,0,0,1,2.772,11.3c.04,3.374-.877,6.175-2.86,8.159-2.621,2.621-6.665,3.381-11.552,2.533-4.757-.825-10.388-3.2-16.283-6.854l-2.062-1.279,2.106-1.191a44.414,44.414,0,0,0,6.211-4.246,38.194,38.194,0,0,0,5.084-4.99,31.577,31.577,0,0,0,4.593-7.211,29.238,29.238,0,0,0,2.333-7.974l.518-3.578,2.082,2.953c1.493,2.116,2.838,4.225,4.019,6.3Zm-55.207-36.923a2.659,2.659,0,0,0-.369-.578l-1.54-1.858,2.367-.472a20.16,20.16,0,0,1,8.976.617,48.393,48.393,0,0,1,10.8,4.544l4.94,2.742-5.649-.052c-5.765-.053-10.231.185-13.153,1.874-2.757,1.593-4.264,4.675-4.4,10.407v.006q-.022.7-.013,1.42c.006.467.021.98.046,1.533.053,1.125.117,2.262.2,3.426.079,1.123.169,2.192.275,3.2l.65,6.182-3.3-5.275q-1.374-2.2-2.517-4.356t-2.013-4.211a35.224,35.224,0,0,1-2.553-8.593,15.786,15.786,0,0,1,.385-7.08l.76-2.353,1.666,1.823a2.7,2.7,0,0,0,4.646-2.291,2.638,2.638,0,0,0-.2-.658Zm2.936-.291c.04.153.074.308.1.465a5.581,5.581,0,0,1-4.537,6.443h0a5.542,5.542,0,0,1-2.743-.215c-.1-.033-.19-.068-.284-.106a15.655,15.655,0,0,0,.125,3.856,32.309,32.309,0,0,0,2.35,7.874q.545,1.285,1.206,2.62l-.017-.338q-.035-.8-.045-1.623-.01-.8.012-1.533c.169-6.89,2.166-10.7,5.833-12.821a19.805,19.805,0,0,1,8.67-2.136,37.493,37.493,0,0,0-4.9-1.705,20.42,20.42,0,0,0-5.766-.78Z" transform="translate(-10431.58 -5026.785)" fill="#6b452c"/>
  <path id="Контур_270" data-name="Контур 270" d="M10039.664,5863.929q-1.443-.583-3.106-1.132-.74-.243-1.486-.469.026,1.343.028,2.867c0,1.775-.014,3.724-.035,5.869v.006q-.012.981-.064,1.836-.059.935-.157,1.787l-.042.366-.022.031.014.02-.08.554a32.144,32.144,0,0,1-2.569,8.762,33.444,33.444,0,0,1-2.721,4.847q1.95-.411,3.785-.9a56.122,56.122,0,0,0,6.457-2.13h.006q.918-.367,1.8-.771.284-.129.559-.26a5.039,5.039,0,0,1-.119-1.079,5.13,5.13,0,0,1,7.774-4.4,9.328,9.328,0,0,0,1.219-1.881,6.369,6.369,0,0,0,.65-2.765,8.178,8.178,0,0,0-2.873-5.736A27.861,27.861,0,0,0,10039.664,5863.929Zm-2.206-3.868q1.67.552,3.275,1.2a30.654,30.654,0,0,1,9.953,6.024c2.417,2.357,3.752,4.99,3.752,7.8a9.214,9.214,0,0,1-.944,4,13.265,13.265,0,0,1-2.648,3.634l-1.083,1.081-1.011-1.154a2.275,2.275,0,0,0-.767-.568,2.251,2.251,0,0,0-3.19,2.053,2.131,2.131,0,0,0,.28,1.094l.718,1.287-1.309.683q-.889.463-1.818.887t-1.934.825v0a59.178,59.178,0,0,1-6.784,2.243c-2.393.641-4.963,1.19-7.678,1.636l-3.827.627,2.494-2.969a31.611,31.611,0,0,0,4.593-7.211,29.22,29.22,0,0,0,2.247-7.417l-.523-.736.769-1.076q.067-.64.105-1.267.056-.887.065-1.7c.021-2.141.038-4.083.034-5.841,0-1.73-.027-3.3-.088-4.728l-.081-1.947,1.883.5q1.862.5,3.515,1.042Zm-53.509,17.841c-.245-1.11-.449-2.207-.617-3.3s-.311-2.245-.437-3.493c-.115-1.092-.209-2.192-.288-3.3-.075-1.072-.141-2.241-.2-3.493q-.025-.552-.037-1.118l-.092.033q-.97.346-1.844.7h-.006a27.884,27.884,0,0,0-9.017,5.418,7.165,7.165,0,0,0,0,11.471,27.866,27.866,0,0,0,9.016,5.42,54.824,54.824,0,0,0,5.431,1.845q1.187.339,2.427.644a29,29,0,0,1-1.861-3.368,35.44,35.44,0,0,1-2.477-7.458Zm2.23-3.725q.258,1.674.572,3.106a32.637,32.637,0,0,0,2.274,6.861,25.9,25.9,0,0,0,3.8,5.875l2.673,3.125-4.035-.778c-2.248-.434-4.386-.941-6.391-1.513a57.454,57.454,0,0,1-5.711-1.947,30.7,30.7,0,0,1-9.951-6.027c-2.415-2.358-3.749-4.991-3.749-7.8s1.334-5.437,3.749-7.794a30.673,30.673,0,0,1,9.946-6.024v0q.973-.394,1.956-.745.961-.343,2.07-.692l1.924-.606-.062,2.019q-.021.7-.012,1.42c.006.467.021.979.046,1.533.052,1.125.116,2.262.2,3.426q.119,1.685.276,3.2v.006C9985.866,5871.938,9986.007,5873.052,9986.18,5874.177Z" transform="translate(-9965.661 -5839.561)" fill="#6b452c"/>
  <path id="Контур_271" data-name="Контур 271" d="M10422.116,4979.43a5.55,5.55,0,0,1-5.053-1.729l0,0a5.572,5.572,0,1,1,9.173-6.084,5.453,5.453,0,0,1,.426,1.367,5.582,5.582,0,0,1-4.537,6.443h-.006Zm-1.819-2.939a2.7,2.7,0,0,0,3.525-3.02,2.644,2.644,0,0,0-.2-.658,2.618,2.618,0,0,0-.368-.578l-.006-.006a2.7,2.7,0,0,0-4.738,2.179,2.636,2.636,0,0,0,.232.718,2.68,2.68,0,0,0,.435.629v.006A2.7,2.7,0,0,0,10420.3,4976.49Z" transform="translate(-10406.009 -4968.366)" fill="#6b452c"/>
  <path id="Контур_272" data-name="Контур 272" d="M13556.232,6825.094a5.132,5.132,0,0,1-9.627,2.484h0a5.13,5.13,0,0,1,6.606-7.158,5.152,5.152,0,0,1,2.687,2.873h0A5.132,5.132,0,0,1,13556.232,6825.094Zm-3.542,1.6a2.288,2.288,0,0,0,.521-2.392v-.006a2.257,2.257,0,0,0-4.37.8,2.293,2.293,0,0,0,.066.566,2.239,2.239,0,0,0,.213.528l.006.006a2.259,2.259,0,0,0,3.563.5Z" transform="translate(-13469.707 -6780.525)" fill="#6b452c"/>
  <path id="Контур_273" data-name="Контур 273" d="M10320.718,7785.919a5.09,5.09,0,0,1-.854,2.822l0,0a5.136,5.136,0,1,1-5.244-7.868c.145-.028.3-.05.466-.067.189-.019.354-.028.49-.028a5.139,5.139,0,0,1,5.138,5.139Zm-2.977.655a2.273,2.273,0,0,0,.095-.655,2.258,2.258,0,0,0-2.257-2.257c-.1,0-.169,0-.208.006-.065.006-.139.018-.219.033a2.262,2.262,0,1,0,2.306,3.466l.011-.011A2.166,2.166,0,0,0,10317.741,7786.574Z" transform="translate(-10303.098 -7720.883)" fill="#6b452c"/>
  <path id="Контур_274" data-name="Контур 274" d="M13046.228,6367.853l-.707-.993,4.178-5.86-.59,5.461c-.016.146-.038.317-.062.507-.017.114-.042.286-.074.492l-.553,3.551-2.047-2.954-.145-.2Z" transform="translate(-12979.927 -6331.34)" fill="#6b452c"/>
  <path id="Контур_275" data-name="Контур 275" d="M11483.738,5297.171q-.012.981-.065,1.836-.059.935-.157,1.787l-.041.366-1.781,2.5-1.171-1.641q-.995-1.394-2.077-2.789-1.031-1.33-2.217-2.744l-.335-.4,0-.528c.017-2.281.01-4.239-.056-5.929a28.134,28.134,0,0,0-.4-4.073v-.005c-.382-2.009-1.067-3.141-2.324-3.75-1.492-.724-3.846-.923-7.327-.991l-.284-.005-.251-.107a3.173,3.173,0,0,0-.884-.234,3.264,3.264,0,0,0-.923.026,2.893,2.893,0,0,0-.616.174l-.277.119h-.29c-.8,0,.073,0-.473-.008-.215,0,.42,0-.482,0-.25,0-.031,0-.549-.009l-1-.013-.365-.27c-.637-.468-.44-.328-.756-.558l-.75-.541q-1.749-1.246-3.561-2.4-1.846-1.172-3.541-2.114l-4.93-2.74,5.638.05c1.438.013,2.913.042,4.457.074,2.009.041,4.137.083,6.343.094l3.339.015c6.957.058,11.2.318,13.948,2.233,2.882,2.006,3.847,5.472,4.1,11.858.06,1.427.084,3.037.088,4.841,0,1.775-.014,3.724-.035,5.869v.005Zm-2.881.478c0-.173.008-.344.011-.512.021-2.141.038-4.083.034-5.841,0-1.73-.027-3.3-.088-4.728-.215-5.394-.9-8.229-2.875-9.606-2.109-1.469-5.948-1.674-12.326-1.727l-3.328-.014c-1.935-.009-3.762-.042-5.5-.077q1.355.889,2.771,1.9c.218.218.863.629,1.168.851h.062c.162,0-.084,0,.526,0,.572,0-.042,0,.494.008.21,0-.5,0,.206,0a5.857,5.857,0,0,1,.943-.246h.006a6.093,6.093,0,0,1,1.738-.05,6.02,6.02,0,0,1,1.416.341c3.742.083,6.353.345,8.254,1.267,2.18,1.057,3.329,2.808,3.9,5.8a30.485,30.485,0,0,1,.443,4.5c.063,1.576.072,3.407.06,5.526q.983,1.187,1.949,2.432l.138.178Z" transform="translate(-11414.335 -5265.663)" fill="#6b452c"/>
  <path id="Контур_276" data-name="Контур 276" d="M10801.971,5303.776a32.072,32.072,0,0,1-2.57,8.762,34.411,34.411,0,0,1-5,7.864,41.1,41.1,0,0,1-5.466,5.373,47.359,47.359,0,0,1-6.617,4.516,37.538,37.538,0,0,1-4.932,2.4l-.57.217-.551-.257q-1.017-.475-2.2-1.061-1.084-.537-2.08-1.062a61.434,61.434,0,0,1-8.149-5.045,36.045,36.045,0,0,1-5.935-5.479,28.71,28.71,0,0,1-4.216-6.527,35.44,35.44,0,0,1-2.477-7.458c-.245-1.111-.449-2.208-.617-3.3s-.312-2.245-.438-3.493q-.171-1.638-.287-3.3c-.075-1.072-.141-2.241-.2-3.493-.023-.532-.039-1.072-.045-1.623q-.01-.8.012-1.533c.169-6.89,2.166-10.7,5.833-12.822,3.5-2.023,8.386-2.313,14.616-2.256l.369,0,.317.177q1.874,1.042,3.688,2.193,1.786,1.135,3.684,2.488l.773.562c.822.6.639.465.767.559l3.583,2.637-4.444-.043-1.526-.018-1.482-.025-1.1-.022c-9.322-.189-15.179-.308-16.715,5.489v.005a15.075,15.075,0,0,0-.437,2.731,29.784,29.784,0,0,0-.036,3.6c.042.942.1,1.9.168,2.9q.1,1.423.239,2.7c.149,1.374.342,2.687.588,3.948a30.616,30.616,0,0,0,.887,3.516,21.293,21.293,0,0,0,3.084,6.161,24.98,24.98,0,0,0,5.438,5.327,42.35,42.35,0,0,0,4.167,2.694c1.4.8,2.946,1.6,4.643,2.41.522-.225,1.384-.62,2.476-1.212h.006c.848-.458,1.816-1.028,2.836-1.711.852-.569,1.748-1.222,2.654-1.961l0,0a30.623,30.623,0,0,0,3.488-3.332,26.328,26.328,0,0,0,2.734-3.646,23.424,23.424,0,0,0,2.607-5.872,24.082,24.082,0,0,0,.924-6.428c.01-.831.015-1.608.02-2.354l.021-4.016,2.517,3q1.153,1.375,2.284,2.834t2.144,2.879l.28.4.322.465Zm-5.181,7.569a29.177,29.177,0,0,0,2.247-7.417q-.848-1.185-1.758-2.371a26.624,26.624,0,0,1-.971,5.677,26.3,26.3,0,0,1-2.935,6.592,29.044,29.044,0,0,1-3.026,4.052,33.616,33.616,0,0,1-3.814,3.647h-.006c-.979.8-1.948,1.5-2.871,2.122-1.125.753-2.168,1.368-3.069,1.855v0a30.769,30.769,0,0,1-3.326,1.575v0l-.088.037a3.6,3.6,0,0,1-.475.083h-.317l-.29-.135c-1.983-.925-3.785-1.85-5.424-2.789a45.3,45.3,0,0,1-4.448-2.886,27.817,27.817,0,0,1-6.045-5.946,24.081,24.081,0,0,1-3.5-6.972,33.347,33.347,0,0,1-.978-3.842c-.257-1.315-.46-2.712-.622-4.2q-.149-1.383-.249-2.8c-.064-.9-.12-1.9-.169-2.976a32.651,32.651,0,0,1,.036-3.939,17.855,17.855,0,0,1,.528-3.261h0c2.079-7.829,8.6-7.841,18.965-7.634q-.633-.418-1.272-.824-1.673-1.063-3.224-1.937c-5.587-.039-9.924.225-12.784,1.876-2.757,1.593-4.264,4.675-4.4,10.407v.006q-.021.7-.012,1.42c.006.467.021.979.046,1.533.052,1.125.117,2.262.2,3.426.079,1.123.17,2.192.276,3.2v.006c.113,1.112.254,2.227.427,3.352s.362,2.152.573,3.106a32.635,32.635,0,0,0,2.273,6.861,25.864,25.864,0,0,0,3.8,5.875,33.307,33.307,0,0,0,5.474,5.04,58.509,58.509,0,0,0,7.768,4.809q.984.519,2.012,1.027.708.35,1.585.764a38.369,38.369,0,0,0,3.98-1.98,44.341,44.341,0,0,0,6.212-4.246,38.214,38.214,0,0,0,5.083-4.989,31.555,31.555,0,0,0,4.593-7.211Z" transform="translate(-10732.922 -5267.674)" fill="#6b452c"/>
  <path id="Контур_277" data-name="Контур 277" d="M12052.3,5556.455q-1.475-1.767-2.959-3.387-1.422-1.553-3.166-3.3l0,0q-.738-.738-1.493-1.464-.716-.688-1.5-1.414l-.829-.763.542-.987a3.189,3.189,0,0,0,.374-1.192,3.542,3.542,0,0,0,.014-.445,3.2,3.2,0,0,0-.05-.439v-.005a3.194,3.194,0,0,0-1.9-2.392l-6.867-2.9,7.453.146c3.885.076,6.574.329,8.521,1.272,2.179,1.057,3.329,2.808,3.9,5.8a30.633,30.633,0,0,1,.442,4.5c.067,1.7.073,3.709.057,6.052l-.028,3.922Zm-.843-5.323.507.558c-.01-.74-.026-1.436-.052-2.092a28.134,28.134,0,0,0-.4-4.073v-.005c-.382-2.009-1.067-3.141-2.324-3.75a10.766,10.766,0,0,0-3.647-.818,6.059,6.059,0,0,1,.522,1.617,5.812,5.812,0,0,1,.085.844,6.165,6.165,0,0,1-.025.806v.011a5.96,5.96,0,0,1-.239,1.186l-.016.051q.4.373.806.768.765.733,1.53,1.5h.006q1.575,1.575,3.245,3.4Z" transform="translate(-11990.41 -5525.635)" fill="#6b452c"/>
  <path id="Контур_278" data-name="Контур 278" d="M11027.019,5554.081v.1c0,.758-.01,1.549-.019,2.366a26.939,26.939,0,0,1-1.025,7.193,26.312,26.312,0,0,1-2.935,6.592,29.067,29.067,0,0,1-3.026,4.051,33.453,33.453,0,0,1-3.814,3.647h0c-.979.8-1.949,1.5-2.872,2.122-1.125.753-2.168,1.368-3.069,1.855l0,0a30.632,30.632,0,0,1-3.327,1.575v0l-.088.038a3.612,3.612,0,0,1-.475.083h-.317l-.29-.135c-1.983-.925-3.785-1.85-5.423-2.789a45.279,45.279,0,0,1-4.448-2.886,27.823,27.823,0,0,1-6.046-5.946,24.1,24.1,0,0,1-3.5-6.971,33.582,33.582,0,0,1-.978-3.843c-.256-1.315-.46-2.712-.621-4.2q-.151-1.383-.25-2.8c-.064-.9-.12-1.9-.168-2.976a32.474,32.474,0,0,1,.035-3.939,17.934,17.934,0,0,1,.528-3.261h0c2.118-7.975,8.845-7.839,19.549-7.622l1.1.022c.5.009.99.019,1.46.025l2.045.024c.161,0-.084,0,.525,0,.572,0-.042,0,.494.008.23,0-.646,0,.461,0h7.563l-7.033,2.78a3.053,3.053,0,0,0-.407.193,2.873,2.873,0,0,0-.359.246l-.011.011a3.2,3.2,0,0,0-1.227,2.523h.006c0,.128,0,.218.007.267.008.09.021.182.036.272l0,.006h0a3.2,3.2,0,0,0,5.975.978l.881-1.617,1.354,1.246q.746.686,1.551,1.459.762.734,1.529,1.5h.006q1.575,1.575,3.244,3.4,1.651,1.8,3.05,3.477l.335.4,0,.528Zm-2.89,2.441c.008-.672.012-1.309.016-1.923q-1.308-1.552-2.623-2.988-1.424-1.553-3.167-3.3l0,0q-.738-.738-1.493-1.464l-.359-.344a6.081,6.081,0,0,1-10.243-3.3l0-.054c-.026-.153-.047-.308-.061-.46q-.029-.322-.029-.526h.006a6.028,6.028,0,0,1,.6-2.653c.041-.087.086-.173.132-.258l-1.433-.024-1.1-.022c-9.321-.188-15.178-.307-16.714,5.489v.005a14.991,14.991,0,0,0-.438,2.732,29.984,29.984,0,0,0-.036,3.6c.043.942.1,1.9.169,2.9q.1,1.423.239,2.7c.149,1.374.341,2.687.587,3.948a30.79,30.79,0,0,0,.888,3.516,21.287,21.287,0,0,0,3.083,6.161,25.035,25.035,0,0,0,5.438,5.327,42.439,42.439,0,0,0,4.167,2.694q2.1,1.206,4.644,2.41c.522-.225,1.384-.62,2.475-1.212h.006c.849-.459,1.817-1.028,2.837-1.711.851-.569,1.747-1.223,2.654-1.962l0,0a30.7,30.7,0,0,0,3.488-3.332,26.351,26.351,0,0,0,2.733-3.646,23.431,23.431,0,0,0,2.607-5.872A24.043,24.043,0,0,0,11024.129,5556.522Z" transform="translate(-10962.586 -5524.178)" fill="#6b452c"/>
  <path id="Контур_279" data-name="Контур 279" d="M12024.068,5533.708a5.993,5.993,0,0,1-.712,2.295h0a6.081,6.081,0,0,1-11.33-1.86l0-.054c-.026-.154-.047-.308-.061-.461q-.029-.322-.029-.526h.006a6.013,6.013,0,0,1,.6-2.653,6.1,6.1,0,0,1,1.714-2.133h0a5.684,5.684,0,0,1,.708-.483,5.923,5.923,0,0,1,.79-.384l.256-.1h.018a5.883,5.883,0,0,1,.943-.247h.006a6.093,6.093,0,0,1,1.738-.05,6.025,6.025,0,0,1,1.684.448v0a6.053,6.053,0,0,1,3.612,4.545,5.941,5.941,0,0,1,.086.844,6.518,6.518,0,0,1-.025.805v.011Zm-2.986.33a3.042,3.042,0,0,0,.127-.611,3.362,3.362,0,0,0,.014-.445,3.191,3.191,0,0,0-.05-.439v-.005a3.164,3.164,0,0,0-.641-1.433,3.2,3.2,0,0,0-1.255-.959h-.006a3.179,3.179,0,0,0-.885-.233,3.257,3.257,0,0,0-.922.026,2.9,2.9,0,0,0-.617.174l-.2.087c-.087.04-.168.081-.242.123a2.892,2.892,0,0,0-.359.246l-.012.011a3.205,3.205,0,0,0-1.226,2.523h.006c0,.128,0,.217.007.267.008.091.021.182.037.272v.007h0a3.205,3.205,0,0,0,5.976.978v-.005a3.206,3.206,0,0,0,.247-.581Z" transform="translate(-11968.35 -5515.114)" fill="#6b452c"/>
  <path id="Контур_280" data-name="Контур 280" d="M11523.11,6155.9v7.684h-6.642v6.723h-9.365v-6.723h-6.483v-9.125h6.483v-6.565h9.365v6.565h6.642Zm-2.882,4.8v-3.361h-6.642v-6.565h-3.6v6.565h-6.483v3.361h6.483v6.723h3.6V6160.7Z" transform="translate(-11467.929 -6122.769)" fill="#ff5638"/>
</svg>
