<svg xmlns="http://www.w3.org/2000/svg" xmlns:xlink="http://www.w3.org/1999/xlink" width="52.179" height="75" viewBox="0 0 52.179 75">
  <defs>
    <linearGradient id="linear-gradient" x1="0.689" y1="0.237" x2="0" y2="1.053" gradientUnits="objectBoundingBox">
      <stop offset="0" stop-color="#ffaf24"/>
      <stop offset="1" stop-color="#ed1a56"/>
    </linearGradient>
  </defs>
  <path id="Контур_305" data-name="Контур 305" d="M3859.458,1828.171a8.107,8.107,0,0,1,3.929,4.842l3.9,1.347,2.913-4.263-1.516-3.745a8.661,8.661,0,0,1-6.01-.923,6.33,6.33,0,0,1-3.212,2.742Zm12.612,38.2-1.875-6.03a4.991,4.991,0,0,1-2.245-1.22,25.341,25.341,0,0,1-5.88-9.183,11.113,11.113,0,0,0-2.678-3.975l-2.6-2.515a14.675,14.675,0,0,1-3.676-5.832l-2.035-6.066a2.987,2.987,0,0,1,.224-2.413,2.906,2.906,0,0,1,1.1-1.11,3.023,3.023,0,0,1-1.63-1.745,2.983,2.983,0,0,1,.352-2.689l4.5-6.62a8.383,8.383,0,0,1,6.186-3.638l8.515-.768-4-14.017a5.5,5.5,0,0,1,.921-4.936,5.676,5.676,0,0,1,5.548-2.135,5.586,5.586,0,0,1,4.3,3.771l2.8,8.474c.1-1.428.217-2.857.36-4.148a6.026,6.026,0,0,1,5.676-5.377,5.873,5.873,0,0,1,4.635,1.814,6.014,6.014,0,0,1,1.688,4.689l-.918,11.3c.4-.844.788-1.7,1.168-2.525a5.377,5.377,0,0,1,9.9,4.2L3895.638,1831c-1.576,4.043-1.885,8.291-2.211,12.785-.086,1.217-.178,2.436-.291,3.668l.885,17.329-3.5.178-.88-17.581c.115-1.457.2-2.65.291-3.844.329-4.559.666-9.27,2.438-13.806l6.775-17.329a1.866,1.866,0,0,0-3.431-1.467c-2.062,4.512-4.551,9.655-5.164,10.913l-.518,6.352-3.5-.281,2.237-27.491a2.5,2.5,0,0,0-.707-1.962,2.615,2.615,0,0,0-1.934-.758,2.522,2.522,0,0,0-2.373,2.268c-.574,5.117-.74,12.793-.74,12.875l-.095,0,1.368,4.133-3.332,1.1-7.188-21.731a2.12,2.12,0,0,0-1.633-1.426,2.045,2.045,0,0,0-1.992.7,2.08,2.08,0,0,0-.439,1.962l4.513,15.836,6.683,11.1-3.013,1.809-6.229-10.354-9.53.86a4.844,4.844,0,0,0-3.6,2.117l-4.089,6.018c1.937.452,4.24.449,5.441-1.449a3.364,3.364,0,0,1,4.359-1.227,5.644,5.644,0,0,0,3.582.745,3.462,3.462,0,0,1,4.12,2.025l1.51,3.811a3.42,3.42,0,0,1-.38,3.24l-3,4.286a3.476,3.476,0,0,1-3.936,1.291l-3.923-1.344a3.513,3.513,0,0,1-2.184-2.268c-.775-2.5-2.615-3.535-5.433-3.059l1.839,5.485a11.151,11.151,0,0,0,2.793,4.426l2.594,2.513a14.624,14.624,0,0,1,3.518,5.24,21.79,21.79,0,0,0,5.018,7.893,1.582,1.582,0,0,0,1.155.416,9.742,9.742,0,0,1,2.127.293c1.771.367,3.457.729,5.518-.936l2.209,2.732a8.4,8.4,0,0,1-5.464,2.028,11.3,11.3,0,0,1-1.855-.168l1.365,4.393-3.352,1.041Z" transform="translate(-3850.604 -1791.372)" fill-rule="evenodd" fill="url(#linear-gradient)"/>
</svg>
