<svg xmlns="http://www.w3.org/2000/svg" width="73.867" height="84.037" viewBox="0 0 73.867 84.037">
  <g id="Сгруппировать_29" data-name="Сгруппировать 29" transform="translate(-170.133 -497.981)">
    <g id="Сгруппировать_28" data-name="Сгруппировать 28" transform="translate(1419 -1181.943)">
      <g id="Сгруппировать_27" data-name="Сгруппировать 27" transform="translate(320.048)">
        <path id="Контур_285" data-name="Контур 285" d="M349.643,409.79c-.938,4.632-3.525,7.726-8.176,8.645-4.407.863-7.857-.9-10.482-4.519-2.888,3.844-6.657,5.494-11.364,4.182-4.088-1.144-6.357-4.088-7.219-8.27-5.138,1.181-9.545-.038-12.564-4.5-3-4.425-2.55-8.945.488-13.333-3.957-2.25-6.244-5.551-6.226-10.164.019-4.594,2.269-7.932,6.207-10.257-3.113-4.388-3.413-8.926-.3-13.314,3.019-4.257,7.313-5.476,12.4-4.294.975-4.688,3.713-7.726,8.476-8.57,3.282-.581,7.126.338,10.089,4.5,2.682-3.713,6.244-5.476,10.764-4.482,4.5.975,7.013,4.032,7.913,8.551,5.569-1.2,10.126.3,13.014,5.307,2.438,4.182,1.95,8.382-.919,12.283a11.522,11.522,0,0,1-.019,20.477c3.169,4.688,3.488,9.47-.038,14.026C358.644,409.9,354.462,410.934,349.643,409.79Zm-20.14-31.9V356.515c0-.563,0-1.125-.038-1.688a7.055,7.055,0,1,0-14.064,1.106,2.091,2.091,0,0,1-.638,1.594c-.394.263-1.144.075-1.725.019-.225-.019-.45-.225-.675-.319a8.136,8.136,0,0,0-9.77,2.438,7.871,7.871,0,0,0,.019,9.882,2.377,2.377,0,0,0,2.306,1.069,15.642,15.642,0,0,1,1.875-.019,6.85,6.85,0,1,1-.488,13.689,1.5,1.5,0,0,1-1.5-1.481,1.524,1.524,0,0,1,1.406-1.5,5.008,5.008,0,0,1,.75-.019,3.506,3.506,0,0,0,3.507-3.019c.356-2.1-.544-4.088-2.363-4.425a12.479,12.479,0,0,0-5.269,0,8.305,8.305,0,0,0,.319,15.92c.694.206,1.313.45,1.463,1.256a1.736,1.736,0,0,1-.825,1.744,7.948,7.948,0,0,0-2.944,6.057,8.161,8.161,0,0,0,12,7.426c.638-.338,1.35-.656,1.894-.094a2.4,2.4,0,0,1,.638,1.613,7.059,7.059,0,0,0,10.707,6.657,7.108,7.108,0,0,0,3.413-6.563c-.019-8.663,0-17.327,0-25.971,0-.244-.038-.488-.056-.75a3.731,3.731,0,0,0-.413-.038c-2.306.056-3.994,1.781-4.313,4.369-.131,1.106-.75,1.725-1.65,1.631s-1.406-.825-1.331-1.931a7.215,7.215,0,0,1,4.388-6.376A32.352,32.352,0,0,1,329.5,377.893Zm3,9.245c.731,0,1.313-.019,1.913,0a7.533,7.533,0,0,1,7.126,7.332,1.521,1.521,0,0,1-1.425,1.65,1.505,1.505,0,0,1-1.556-1.519c-.319-3.244-2.757-5.026-6-4.35a4.951,4.951,0,0,0-.038.544v17.083a10.48,10.48,0,0,0,.094,1.875,7.058,7.058,0,0,0,14.008-1.594c-.113-2.156.75-2.663,2.738-1.781a9.058,9.058,0,0,0,2.944.806,8.011,8.011,0,0,0,8.213-5.007,8.269,8.269,0,0,0-2.344-9.451,2.588,2.588,0,0,1-.788-1.65c-.019-.769.694-1.088,1.406-1.294a8.177,8.177,0,0,0,5.832-10.22,8.39,8.39,0,0,0-10.351-5.869,3.737,3.737,0,0,0-2.7,4.35,3.552,3.552,0,0,0,3.6,3.263,5.012,5.012,0,0,1,.75.019,1.539,1.539,0,0,1,1.369,1.538,1.508,1.508,0,0,1-1.444,1.444,6.634,6.634,0,0,1-7.182-5.476c-.6-4.013,1.463-7.332,5.1-8.045a38.612,38.612,0,0,1,3.919-.206,2.078,2.078,0,0,0,1.144-.469,7.747,7.747,0,0,0,1.594-8.813,8.141,8.141,0,0,0-11.307-3.825,1.712,1.712,0,0,1-1.856.113,1.586,1.586,0,0,1-.638-1.725,5.026,5.026,0,0,0,.038-.75A7.042,7.042,0,0,0,332.579,355q-.028,11.786-.019,23.552C332.5,381.4,332.5,384.193,332.5,387.137Z" transform="translate(-1863.014 1345.311)" fill="#6b452c"/>
        <path id="Контур_286" data-name="Контур 286" d="M626.869,314.285a8.388,8.388,0,0,1-.825,1.331c-1.369,1.406-2.757,2.794-4.163,4.182a1.518,1.518,0,1,1-2.119-2.138c1.406-1.425,2.813-2.832,4.238-4.238a1.333,1.333,0,0,1,1.688-.375A6.827,6.827,0,0,1,626.869,314.285Z" transform="translate(-2127.113 1371.527)" fill="#ff5638"/>
        <path id="Контур_287" data-name="Контур 287" d="M595.064,293.463c0-.956-.019-1.931,0-2.888a1.478,1.478,0,0,1,1.5-1.575,1.5,1.5,0,0,1,1.5,1.575c.019,1.969.019,3.919,0,5.888a1.492,1.492,0,1,1-2.982,0C595.045,295.451,595.064,294.457,595.064,293.463Z" transform="translate(-2107.535 1390.924)" fill="#ff5638"/>
        <path id="Контур_288" data-name="Контур 288" d="M639.7,364.021c-.956,0-1.931.019-2.888,0a1.5,1.5,0,1,1,.019-2.982q2.9-.028,5.794,0a1.478,1.478,0,0,1,1.575,1.5,1.5,1.5,0,0,1-1.575,1.5C641.63,364.039,640.674,364.021,639.7,364.021Z" transform="translate(-2140.15 1332.405)" fill="#ff5638"/>
        <path id="Контур_289" data-name="Контур 289" d="M391.727,591.786c-4.257-.244-7.22-2.006-8.926-5.626-.694-1.481-1.219-3.075-1.781-4.613a1.455,1.455,0,0,1,.881-2.044,1.47,1.47,0,0,1,1.913,1.013c.506,1.275.956,2.569,1.463,3.844a6.415,6.415,0,0,0,7.351,4.238c1.444-.225,2.888-.469,4.332-.713a1.562,1.562,0,0,1,1.931,1.163,1.493,1.493,0,0,1-1.369,1.763C395.5,591.186,393.471,591.486,391.727,591.786Z" transform="translate(-1933.526 1154.97)" fill="#6b452c"/>
        <path id="Контур_290" data-name="Контур 290" d="M398.033,439.079a1.526,1.526,0,0,1-1.369,1.613,1.447,1.447,0,0,1-1.613-1.444c-.356-2.925-1.856-4.182-4.8-4.257a14,14,0,0,1-3.957-.544A6.912,6.912,0,0,1,381.7,428a1.5,1.5,0,1,1,2.982-.263c.488,3.113,1.856,4.35,5.063,4.257,2.85-.075,5.232.694,6.957,3.057A7.334,7.334,0,0,1,398.033,439.079Z" transform="translate(-1934.188 1279.398)" fill="#6b452c"/>
        <path id="Контур_291" data-name="Контур 291" d="M552.745,557.983a9.264,9.264,0,0,1-2.569,6.451c-1.125,1.181-2.269,2.325-3.432,3.469a1.463,1.463,0,0,1-2.231.131,1.525,1.525,0,0,1,.131-2.25c.994-1.031,2.044-2.025,3.038-3.057a6.463,6.463,0,0,0,.844-8.607c-.713-1.106-1.463-2.175-2.175-3.282a1.507,1.507,0,1,1,2.475-1.669c.863,1.256,1.725,2.532,2.532,3.825A9.2,9.2,0,0,1,552.745,557.983Z" transform="translate(-2066.116 1180.241)" fill="#6b452c"/>
        <path id="Контур_292" data-name="Контур 292" d="M521.721,432.03a14.92,14.92,0,0,0,1.856-.187,4.092,4.092,0,0,0,3.169-3.525l.056-.563a1.5,1.5,0,1,1,2.982.225,7,7,0,0,1-5.1,6.657,15.5,15.5,0,0,1-3.619.356c-2.719.056-4.332,1.463-4.613,4.144-.113,1.05-.694,1.613-1.594,1.556-.919-.056-1.463-.788-1.388-1.875C513.733,434.786,517.089,431.711,521.721,432.03Z" transform="translate(-2041.243 1279.398)" fill="#6b452c"/>
      </g>
    </g>
  </g>
</svg>
